<svg width="16" height="16" viewBox="0 0 16 16" fill="none" xmlns="http://www.w3.org/2000/svg">
<path d="M13.359 11.238C15.06 9.72 16 8 16 8C16 8 13 2.5 7.99996 2.5C7.03955 2.50331 6.09002 2.70342 5.20996 3.088L5.97996 3.859C6.6274 3.62315 7.31091 3.50168 7.99996 3.5C10.12 3.5 11.879 4.668 13.168 5.957C13.7883 6.58069 14.3444 7.26513 14.828 8C14.77 8.087 14.706 8.183 14.633 8.288C14.298 8.768 13.803 9.408 13.168 10.043C13.003 10.208 12.831 10.371 12.651 10.529L13.359 11.238Z" fill="#A2A9B0"/>
<path d="M11.2974 9.17611C11.5205 8.55195 11.5618 7.87726 11.4165 7.23053C11.2712 6.5838 10.9452 5.99164 10.4765 5.52293C10.0078 5.05422 9.41566 4.72825 8.76893 4.58294C8.12221 4.43763 7.44751 4.47896 6.82335 4.70211L7.64635 5.52511C8.03066 5.4701 8.4225 5.50535 8.79083 5.62807C9.15915 5.75079 9.49383 5.9576 9.76834 6.23212C10.0429 6.50664 10.2497 6.84132 10.3724 7.20964C10.4951 7.57796 10.5304 7.9698 10.4754 8.35411L11.2974 9.17611ZM8.35435 10.4751L9.17635 11.2971C8.5522 11.5203 7.8775 11.5616 7.23077 11.4163C6.58405 11.271 5.99188 10.945 5.52317 10.4763C5.05447 10.0076 4.72849 9.41542 4.58318 8.76869C4.43787 8.12196 4.4792 7.44727 4.70235 6.82311L5.52535 7.64611C5.47035 8.03042 5.5056 8.42226 5.62832 8.79058C5.75104 9.1589 5.95785 9.49358 6.23237 9.7681C6.50688 10.0426 6.84156 10.2494 7.20988 10.3721C7.5782 10.4949 7.97004 10.5301 8.35435 10.4751V10.4751Z" fill="#A2A9B0"/>
<path d="M3.35 5.47C3.17 5.63 2.997 5.792 2.832 5.957C2.21165 6.58069 1.65552 7.26512 1.172 8L1.367 8.288C1.702 8.768 2.197 9.408 2.832 10.043C4.121 11.332 5.881 12.5 8 12.5C8.716 12.5 9.39 12.367 10.02 12.14L10.79 12.912C9.90994 13.2965 8.9604 13.4967 8 13.5C3 13.5 0 8 0 8C0 8 0.939 6.279 2.641 4.762L3.349 5.471L3.35 5.47ZM13.646 14.354L1.646 2.354L2.354 1.646L14.354 13.646L13.646 14.354Z" fill="#A2A9B0"/>
</svg>
