<svg width="20" height="20" viewBox="0 0 20 20" fill="none" xmlns="http://www.w3.org/2000/svg">
<path d="M14 2H6C3.79086 2 2 3.79086 2 6V14C2 16.2091 3.79086 18 6 18H14C16.2091 18 18 16.2091 18 14V6C18 3.79086 16.2091 2 14 2Z" fill="#2656F6"/>
<path fill-rule="evenodd" clip-rule="evenodd" d="M14.2548 7.25064C14.4776 7.47351 14.4776 7.83485 14.2548 8.05772L9.89707 12.4154C9.22847 13.084 8.14445 13.084 7.47584 12.4154L6.00016 10.9397C5.77729 10.7168 5.77729 10.3555 6.00016 10.1326C6.22303 9.90975 6.58437 9.90975 6.80724 10.1326L8.28292 11.6083C8.50579 11.8311 8.86713 11.8311 9.09 11.6083L13.4477 7.25064C13.6706 7.02778 14.0319 7.02778 14.2548 7.25064Z" fill="white"/>
</svg>
