<svg width="28" height="28" viewBox="0 0 28 28" fill="none" xmlns="http://www.w3.org/2000/svg">
<path d="M13.3875 2.79999H15.3125V14.35H13.3875V2.79999ZM10.5 3.46171V5.56718C8.77557 6.28905 7.37192 7.45207 6.28911 9.05624C5.2464 10.6604 4.72505 12.425 4.72505 14.35C4.72505 16.9969 5.6675 19.2627 7.55239 21.1476C9.43729 23.0325 11.7032 23.975 14.35 23.975C16.9969 23.975 19.2628 23.0325 21.1477 21.1476C23.0326 19.2627 23.975 16.9969 23.975 14.35C23.975 12.425 23.4336 10.6604 22.3508 9.05624C21.3081 7.45207 19.9245 6.28905 18.2 5.56718V3.46171C20.486 4.26379 22.3308 5.66744 23.7344 7.67264C25.1782 9.63775 25.9 11.8635 25.9 14.35C25.9 17.5182 24.7571 20.2453 22.4711 22.5312C20.2253 24.7771 17.5183 25.9 14.35 25.9C11.1818 25.9 8.45474 24.7771 6.1688 22.5312C3.92297 20.2453 2.80005 17.5182 2.80005 14.35C2.80005 11.8635 3.50187 9.63775 4.90552 7.67264C6.34927 5.66744 8.21411 4.26379 10.5 3.46171Z" fill="#878D96"/>
</svg>
