<svg width="16" height="16" viewBox="0 0 16 16" fill="none" xmlns="http://www.w3.org/2000/svg">
<g clip-path="url(#clip0_108_12)">
<path d="M8 16C12.4183 16 16 12.4183 16 8C16 3.58172 12.4183 0 8 0C3.58172 0 0 3.58172 0 8C0 12.4183 3.58172 16 8 16Z" fill="#2656F6"/>
<path fill-rule="evenodd" clip-rule="evenodd" d="M11.4043 5.46721C11.5826 5.64551 11.5826 5.93458 11.4043 6.11288L7.91825 9.599C7.38336 10.1339 6.51615 10.1339 5.98126 9.599L4.80072 8.41845C4.62242 8.24016 4.62242 7.95109 4.80072 7.77279C4.97901 7.5945 5.26809 7.5945 5.44638 7.77279L6.62692 8.95334C6.80522 9.13163 7.09429 9.13163 7.27258 8.95334L10.7587 5.46721C10.937 5.28892 11.226 5.28892 11.4043 5.46721Z" fill="white"/>
</g>
<defs>
<clipPath id="clip0_108_12">
<rect width="16" height="16" fill="white"/>
</clipPath>
</defs>
</svg>
