<svg width="16" height="16" viewBox="0 0 16 16" fill="none" xmlns="http://www.w3.org/2000/svg">
<path fill-rule="evenodd" clip-rule="evenodd" d="M0 13.6667C0 13.4899 0.070238 13.3203 0.195262 13.1953C0.320287 13.0702 0.489856 13 0.666667 13H15.3333C15.5101 13 15.6797 13.0702 15.8047 13.1953C15.9298 13.3203 16 13.4899 16 13.6667C16 13.8435 15.9298 14.013 15.8047 14.1381C15.6797 14.2631 15.5101 14.3333 15.3333 14.3333H0.666667C0.489856 14.3333 0.320287 14.2631 0.195262 14.1381C0.070238 14.013 0 13.8435 0 13.6667ZM0 9.66667C0 9.48985 0.070238 9.32029 0.195262 9.19526C0.320287 9.07024 0.489856 9 0.666667 9H15.3333C15.5101 9 15.6797 9.07024 15.8047 9.19526C15.9298 9.32029 16 9.48985 16 9.66667C16 9.84348 15.9298 10.013 15.8047 10.1381C15.6797 10.2631 15.5101 10.3333 15.3333 10.3333H0.666667C0.489856 10.3333 0.320287 10.2631 0.195262 10.1381C0.070238 10.013 0 9.84348 0 9.66667ZM0 5.66667C0 5.48986 0.070238 5.32029 0.195262 5.19526C0.320287 5.07024 0.489856 5 0.666667 5H15.3333C15.5101 5 15.6797 5.07024 15.8047 5.19526C15.9298 5.32029 16 5.48986 16 5.66667C16 5.84348 15.9298 6.01305 15.8047 6.13807C15.6797 6.26309 15.5101 6.33333 15.3333 6.33333H0.666667C0.489856 6.33333 0.320287 6.26309 0.195262 6.13807C0.070238 6.01305 0 5.84348 0 5.66667ZM0 1.66667C0 1.48986 0.070238 1.32029 0.195262 1.19526C0.320287 1.07024 0.489856 1 0.666667 1H15.3333C15.5101 1 15.6797 1.07024 15.8047 1.19526C15.9298 1.32029 16 1.48986 16 1.66667C16 1.84348 15.9298 2.01305 15.8047 2.13807C15.6797 2.2631 15.5101 2.33333 15.3333 2.33333H0.666667C0.489856 2.33333 0.320287 2.2631 0.195262 2.13807C0.070238 2.01305 0 1.84348 0 1.66667Z" fill="#121619"/>
</svg>
