<svg width="17" height="16" viewBox="0 0 17 16" fill="none" xmlns="http://www.w3.org/2000/svg">
<g clip-path="url(#clip0_130_2)">
<path d="M11.8708 10.3441C12.8391 9.02279 13.2728 7.38459 13.0851 5.75725C12.8975 4.12991 12.1023 2.63344 10.8586 1.56723C9.61494 0.501022 8.01458 -0.0562959 6.37766 0.0067772C4.74075 0.0698504 3.18801 0.748663 2.0301 1.90741C0.872179 3.06615 0.194478 4.61938 0.132576 6.25633C0.0706743 7.89329 0.629137 9.49326 1.69624 10.7361C2.76334 11.979 4.26037 12.7732 5.88785 12.9597C7.51532 13.1462 9.15321 12.7113 10.4738 11.7421H10.4728C10.5028 11.7821 10.5348 11.8201 10.5708 11.8571L14.4208 15.7071C14.6083 15.8947 14.8627 16.0002 15.128 16.0003C15.3933 16.0004 15.6477 15.8951 15.8353 15.7076C16.023 15.5201 16.1284 15.2657 16.1285 15.0005C16.1286 14.7352 16.0233 14.4807 15.8358 14.2931L11.9858 10.4431C11.9501 10.4069 11.9116 10.3735 11.8708 10.3431V10.3441ZM12.1288 6.5001C12.1288 7.22237 11.9866 7.93757 11.7102 8.60486C11.4338 9.27215 11.0286 9.87847 10.5179 10.3892C10.0072 10.8999 9.40088 11.305 8.73359 11.5814C8.0663 11.8578 7.3511 12.0001 6.62883 12.0001C5.90656 12.0001 5.19136 11.8578 4.52407 11.5814C3.85678 11.305 3.25046 10.8999 2.73974 10.3892C2.22902 9.87847 1.82389 9.27215 1.54749 8.60486C1.27109 7.93757 1.12883 7.22237 1.12883 6.5001C1.12883 5.04141 1.70829 3.64246 2.73974 2.61101C3.77119 1.57956 5.17014 1.0001 6.62883 1.0001C8.08752 1.0001 9.48647 1.57956 10.5179 2.61101C11.5494 3.64246 12.1288 5.04141 12.1288 6.5001Z" fill="#555555"/>
</g>
<defs>
<clipPath id="clip0_130_2">
<rect width="17" height="16" fill="white"/>
</clipPath>
</defs>
</svg>
