<svg width="16" height="16" viewBox="0 0 16 16" fill="none" xmlns="http://www.w3.org/2000/svg">
<g clip-path="url(#clip0_35_9021)">
<path fill-rule="evenodd" clip-rule="evenodd" d="M4.74963 4.39986C4.57201 5.08993 3.9456 5.59984 3.20006 5.59984C2.31642 5.59984 1.6001 4.88352 1.6001 3.99987C1.6001 3.11622 2.31642 2.3999 3.20006 2.3999C3.9456 2.3999 4.57201 2.90981 4.74963 3.59988H15.6001C15.8209 3.59988 16.0001 3.77894 16.0001 3.99987C16.0001 4.2208 15.8209 4.39986 15.6001 4.39986H4.74963ZM4.00005 3.99987C4.00005 4.44174 3.64184 4.79986 3.20006 4.79986C2.75828 4.79986 2.40008 4.44165 2.40008 3.99987C2.40008 3.55809 2.75828 3.19989 3.20006 3.19989C3.64184 3.19989 4.00005 3.55801 4.00005 3.99987Z" fill="#A2A9B0"/>
<path d="M0.399992 4.40008H1.65037C1.61744 4.27226 1.59997 4.1382 1.59997 4.00009C1.59997 3.86197 1.61744 3.72791 1.65037 3.6001H0.399992C0.179059 3.6001 0 3.77916 0 4.00009C0 4.22102 0.179059 4.40008 0.399992 4.40008Z" fill="#A2A9B0"/>
<path fill-rule="evenodd" clip-rule="evenodd" d="M9.54956 11.5999C9.37193 10.9098 8.74544 10.3999 7.99999 10.3999C7.25455 10.3999 6.62797 10.9098 6.45043 11.5999H0.399991C0.179059 11.5999 0 11.779 0 11.9999C0 12.2207 0.179059 12.3999 0.399991 12.3999H6.45034C6.62797 13.0899 7.25446 13.5998 7.99991 13.5998C8.74536 13.5998 9.37193 13.0899 9.54947 12.3999H15.5998C15.8207 12.3999 15.9998 12.2207 15.9998 11.9999C15.9998 11.779 15.8207 11.5999 15.5998 11.5999H9.54956ZM7.99999 12.7999C8.44186 12.7999 8.79998 12.4417 8.79998 11.9999C8.79998 11.558 8.44186 11.1999 7.99999 11.1999C7.55813 11.1999 7.20001 11.558 7.20001 11.9999C7.20001 12.4417 7.55813 12.7999 7.99999 12.7999Z" fill="#A2A9B0"/>
<path fill-rule="evenodd" clip-rule="evenodd" d="M14.3496 7.59988C14.1719 6.90981 13.5454 6.3999 12.8 6.3999C12.0545 6.3999 11.428 6.90981 11.2504 7.59988H0.399992C0.179059 7.59988 0 7.77902 0 7.99987C0 8.22072 0.179059 8.39986 0.399992 8.39986H11.2504C11.4281 9.08993 12.0545 9.59984 12.8 9.59984C13.5454 9.59984 14.172 9.08993 14.3496 8.39986H15.5999C15.8208 8.39986 15.9999 8.22072 15.9999 7.99987C15.9999 7.77902 15.8208 7.59988 15.5999 7.59988H14.3496ZM12.8 8.79986C13.2419 8.79986 13.6 8.44174 13.6 7.99987C13.6 7.55801 13.2418 7.19989 12.8 7.19989C12.3581 7.19989 12 7.55801 12 7.99987C12 8.44174 12.3581 8.79986 12.8 8.79986Z" fill="#A2A9B0"/>
</g>
<defs>
<clipPath id="clip0_35_9021">
<rect width="16" height="16" fill="white"/>
</clipPath>
</defs>
</svg>
