<svg width="405" height="230" viewBox="0 0 405 230" fill="none" xmlns="http://www.w3.org/2000/svg">
<path d="M75.5 44.5698V34.0698L18 67.0698V91.0698L95 47.5698V109.57L0 165.57V132.57L18 121.57V132.57L75.5 99.5698V78.5698L0 121.57V56.0698L95 0.569824V34.0698L75.5 44.5698Z" fill="#2656F6"/>
<path d="M174.708 126.349L183.764 131.662L184.397 65.3685L163.697 53.2239L162.253 141.65L108.776 110.277L108.547 -0.000121295L137.011 16.6986L137.39 37.7902L127.902 32.224L127.269 98.5177L145.382 109.144L146.498 22.2649L202.993 55.4094L202.791 165.433L173.897 148.481L174.708 126.349Z" fill="#2656F6"/>
<path d="M129.5 137.57L112 147.57L101.5 142.07L43.5 175.07L62.5 186.57L139 142.07L196 175.07L101.5 229.57L75 214.07L92 204.07L101.5 209.57L159.5 175.07L139 163.57L62.5 207.07L7.5 175.07L101.5 121.57L129.5 137.57Z" fill="#2656F6"/>
<g filter="url(#filter0_d_70_39)">
<mask id="path-4-inside-1_70_39" fill="white">
<path d="M241.548 49.7618C239.82 49.7618 238.412 50.1778 237.324 51.0098C236.236 51.8418 235.692 53.0098 235.692 54.5138C235.692 56.2418 236.412 57.7938 237.852 59.1698C238.876 60.1618 240.188 61.2178 241.788 62.3378C243.42 63.4258 244.54 64.2098 245.148 64.6898C245.756 65.1698 246.492 65.8258 247.356 66.6578C248.924 68.2258 249.708 70.0338 249.708 72.0818C249.708 74.7378 248.812 76.7538 247.02 78.1298C245.26 79.4738 242.78 80.1458 239.58 80.1458C236.412 80.1458 233.756 79.3138 231.612 77.6498L232.764 75.9698C234.94 77.4418 237.244 78.1778 239.676 78.1778C242.108 78.1778 243.996 77.6658 245.34 76.6418C246.716 75.6178 247.404 74.1778 247.404 72.3218C247.404 70.7218 246.716 69.2498 245.34 67.9058C244.38 66.9458 243.084 65.9058 241.452 64.7858C239.852 63.6658 238.732 62.8658 238.092 62.3858C237.452 61.8738 236.7 61.2018 235.836 60.3698C234.204 58.7378 233.388 56.8498 233.388 54.7058C233.388 52.5618 234.14 50.8818 235.644 49.6658C237.18 48.4498 239.292 47.8418 241.98 47.8418C244.668 47.8418 247.084 48.3698 249.228 49.4258L248.412 51.2018C246.428 50.2418 244.14 49.7618 241.548 49.7618ZM264.125 50.3858H253.565V48.4178H276.845V50.3858H266.285V79.5698H264.125V50.3858ZM296.052 80.0498C291.604 80.0498 287.876 78.4978 284.868 75.3938C281.86 72.2898 280.356 68.4978 280.356 64.0178C280.356 59.5058 281.86 55.6978 284.868 52.5938C287.876 49.4898 291.604 47.9378 296.052 47.9378C300.5 47.9378 304.228 49.4898 307.236 52.5938C310.244 55.6978 311.748 59.5058 311.748 64.0178C311.748 68.4978 310.244 72.2898 307.236 75.3938C304.228 78.4978 300.5 80.0498 296.052 80.0498ZM296.052 49.9058C292.212 49.9058 289.012 51.2658 286.452 53.9858C283.924 56.7058 282.66 60.0498 282.66 64.0178C282.66 67.9538 283.924 71.2818 286.452 74.0018C289.012 76.6898 292.212 78.0338 296.052 78.0338C299.924 78.0338 303.124 76.6898 305.652 74.0018C308.18 71.2818 309.444 67.9538 309.444 64.0178C309.444 60.0498 308.18 56.7058 305.652 53.9858C303.124 51.2658 299.924 49.9058 296.052 49.9058ZM345.609 78.0338C343.209 79.3778 339.865 80.0498 335.577 80.0498C331.321 80.0498 327.561 78.5138 324.297 75.4418C321.065 72.3698 319.449 68.5618 319.449 64.0178C319.449 59.4418 320.857 55.6178 323.673 52.5458C326.521 49.4738 330.185 47.9378 334.665 47.9378C338.281 47.9378 341.817 48.4978 345.273 49.6178L344.697 51.4418C341.369 50.4178 337.929 49.9058 334.377 49.9058C330.825 49.9058 327.833 51.2658 325.401 53.9858C323.001 56.6738 321.801 59.9858 321.801 63.9218C321.801 67.8258 323.193 71.1538 325.977 73.9058C328.793 76.6578 332.041 78.0338 335.721 78.0338C339.401 78.0338 342.457 77.5218 344.889 76.4978L345.609 78.0338ZM372.391 48.4178L359.095 63.4418C364.343 69.8098 367.927 73.8418 369.847 75.5378C371.799 77.2338 373.735 78.1938 375.655 78.4178L375.607 79.9058C373.815 79.8738 372.359 79.6178 371.239 79.1378C370.119 78.6258 369.127 77.9538 368.263 77.1218C367.399 76.2898 365.543 74.2578 362.695 71.0258C359.879 67.7618 357.767 65.2658 356.359 63.5378L369.751 48.4178H372.391ZM355.687 48.4178V79.5698H353.479V48.4178H355.687ZM241.548 101.762C239.82 101.762 238.412 102.178 237.324 103.01C236.236 103.842 235.692 105.01 235.692 106.514C235.692 108.242 236.412 109.794 237.852 111.17C238.876 112.162 240.188 113.218 241.788 114.338C243.42 115.426 244.54 116.21 245.148 116.69C245.756 117.17 246.492 117.826 247.356 118.658C248.924 120.226 249.708 122.034 249.708 124.082C249.708 126.738 248.812 128.754 247.02 130.13C245.26 131.474 242.78 132.146 239.58 132.146C236.412 132.146 233.756 131.314 231.612 129.65L232.764 127.97C234.94 129.442 237.244 130.178 239.676 130.178C242.108 130.178 243.996 129.666 245.34 128.642C246.716 127.618 247.404 126.178 247.404 124.322C247.404 122.722 246.716 121.25 245.34 119.906C244.38 118.946 243.084 117.906 241.452 116.786C239.852 115.666 238.732 114.866 238.092 114.386C237.452 113.874 236.7 113.202 235.836 112.37C234.204 110.738 233.388 108.85 233.388 106.706C233.388 104.562 234.14 102.882 235.644 101.666C237.18 100.45 239.292 99.8418 241.98 99.8418C244.668 99.8418 247.084 100.37 249.228 101.426L248.412 103.202C246.428 102.242 244.14 101.762 241.548 101.762ZM266.477 123.986L275.453 101.042H276.845L284.669 124.13L285.821 128.018C285.917 127.41 286.317 126.13 287.021 124.178L294.989 100.418H297.293L286.445 131.762H285.149C279.805 116.434 277.037 108.466 276.845 107.858C276.557 106.994 276.269 106.146 275.981 105.314C275.821 105.858 275.389 106.994 274.685 108.722L265.613 131.762H264.317L253.373 100.418H255.821L263.741 123.794C264.189 125.074 264.605 126.498 264.989 128.066C265.149 127.426 265.645 126.066 266.477 123.986ZM303.651 131.57V100.418H305.859V131.57H303.651ZM317.385 131.57V100.418H333.369V102.338H319.593V113.666H332.169V115.538H319.593V131.57H317.385ZM347.469 102.386H336.909V100.418H360.189V102.386H349.629V131.57H347.469V102.386ZM241.548 153.762C239.82 153.762 238.412 154.178 237.324 155.01C236.236 155.842 235.692 157.01 235.692 158.514C235.692 160.242 236.412 161.794 237.852 163.17C238.876 164.162 240.188 165.218 241.788 166.338C243.42 167.426 244.54 168.21 245.148 168.69C245.756 169.17 246.492 169.826 247.356 170.658C248.924 172.226 249.708 174.034 249.708 176.082C249.708 178.738 248.812 180.754 247.02 182.13C245.26 183.474 242.78 184.146 239.58 184.146C236.412 184.146 233.756 183.314 231.612 181.65L232.764 179.97C234.94 181.442 237.244 182.178 239.676 182.178C242.108 182.178 243.996 181.666 245.34 180.642C246.716 179.618 247.404 178.178 247.404 176.322C247.404 174.722 246.716 173.25 245.34 171.906C244.38 170.946 243.084 169.906 241.452 168.786C239.852 167.666 238.732 166.866 238.092 166.386C237.452 165.874 236.7 165.202 235.836 164.37C234.204 162.738 233.388 160.85 233.388 158.706C233.388 156.562 234.14 154.882 235.644 153.666C237.18 152.45 239.292 151.842 241.98 151.842C244.668 151.842 247.084 152.37 249.228 153.426L248.412 155.202C246.428 154.242 244.14 153.762 241.548 153.762ZM258.557 183.57V152.418H273.101V154.338H260.765V165.666H271.901V167.538H260.765V181.554H273.581V183.57H258.557ZM282.416 183.57V152.562C285.168 152.338 287.504 152.226 289.424 152.226C292.368 152.226 294.8 152.994 296.72 154.53C298.64 156.034 299.6 158.194 299.6 161.01C299.6 162.898 299.056 164.642 297.968 166.242C296.88 167.842 295.648 169.138 294.272 170.13C298.08 175.186 300.432 178.21 301.328 179.202C303.152 181.09 305.136 182.162 307.28 182.418L307.232 183.906C305.44 183.874 303.984 183.618 302.864 183.138C301.744 182.626 300.624 181.778 299.504 180.594C298.416 179.41 296 176.226 292.256 171.042C289.664 171.042 287.12 170.962 284.624 170.802V183.57H282.416ZM291.056 169.218C292.304 169.218 293.648 168.386 295.088 166.722C296.528 165.058 297.248 163.122 297.248 160.914C297.248 158.706 296.496 157.026 294.992 155.874C293.488 154.722 291.536 154.146 289.136 154.146C287.856 154.146 286.352 154.21 284.624 154.338V168.978C286.928 169.138 289.072 169.218 291.056 169.218ZM320.249 177.042L330.665 152.418H332.969L319.577 183.762H318.281L304.889 152.418H307.289L319.049 180.114C319.209 179.634 319.609 178.61 320.249 177.042ZM339.323 183.57V152.418H341.531V183.57H339.323ZM377.297 182.034C374.897 183.378 371.553 184.05 367.265 184.05C363.009 184.05 359.249 182.514 355.985 179.442C352.753 176.37 351.137 172.562 351.137 168.018C351.137 163.442 352.545 159.618 355.361 156.546C358.209 153.474 361.873 151.938 366.353 151.938C369.969 151.938 373.505 152.498 376.961 153.618L376.385 155.442C373.057 154.418 369.617 153.906 366.065 153.906C362.513 153.906 359.521 155.266 357.089 157.986C354.689 160.674 353.489 163.986 353.489 167.922C353.489 171.826 354.881 175.154 357.665 177.906C360.481 180.658 363.729 182.034 367.409 182.034C371.089 182.034 374.145 181.522 376.577 180.498L377.297 182.034ZM385.166 183.57V152.418H399.71V154.338H387.374V165.666H398.51V167.538H387.374V181.554H400.19V183.57H385.166Z"/>
</mask>
<path d="M241.548 49.7618C239.82 49.7618 238.412 50.1778 237.324 51.0098C236.236 51.8418 235.692 53.0098 235.692 54.5138C235.692 56.2418 236.412 57.7938 237.852 59.1698C238.876 60.1618 240.188 61.2178 241.788 62.3378C243.42 63.4258 244.54 64.2098 245.148 64.6898C245.756 65.1698 246.492 65.8258 247.356 66.6578C248.924 68.2258 249.708 70.0338 249.708 72.0818C249.708 74.7378 248.812 76.7538 247.02 78.1298C245.26 79.4738 242.78 80.1458 239.58 80.1458C236.412 80.1458 233.756 79.3138 231.612 77.6498L232.764 75.9698C234.94 77.4418 237.244 78.1778 239.676 78.1778C242.108 78.1778 243.996 77.6658 245.34 76.6418C246.716 75.6178 247.404 74.1778 247.404 72.3218C247.404 70.7218 246.716 69.2498 245.34 67.9058C244.38 66.9458 243.084 65.9058 241.452 64.7858C239.852 63.6658 238.732 62.8658 238.092 62.3858C237.452 61.8738 236.7 61.2018 235.836 60.3698C234.204 58.7378 233.388 56.8498 233.388 54.7058C233.388 52.5618 234.14 50.8818 235.644 49.6658C237.18 48.4498 239.292 47.8418 241.98 47.8418C244.668 47.8418 247.084 48.3698 249.228 49.4258L248.412 51.2018C246.428 50.2418 244.14 49.7618 241.548 49.7618ZM264.125 50.3858H253.565V48.4178H276.845V50.3858H266.285V79.5698H264.125V50.3858ZM296.052 80.0498C291.604 80.0498 287.876 78.4978 284.868 75.3938C281.86 72.2898 280.356 68.4978 280.356 64.0178C280.356 59.5058 281.86 55.6978 284.868 52.5938C287.876 49.4898 291.604 47.9378 296.052 47.9378C300.5 47.9378 304.228 49.4898 307.236 52.5938C310.244 55.6978 311.748 59.5058 311.748 64.0178C311.748 68.4978 310.244 72.2898 307.236 75.3938C304.228 78.4978 300.5 80.0498 296.052 80.0498ZM296.052 49.9058C292.212 49.9058 289.012 51.2658 286.452 53.9858C283.924 56.7058 282.66 60.0498 282.66 64.0178C282.66 67.9538 283.924 71.2818 286.452 74.0018C289.012 76.6898 292.212 78.0338 296.052 78.0338C299.924 78.0338 303.124 76.6898 305.652 74.0018C308.18 71.2818 309.444 67.9538 309.444 64.0178C309.444 60.0498 308.18 56.7058 305.652 53.9858C303.124 51.2658 299.924 49.9058 296.052 49.9058ZM345.609 78.0338C343.209 79.3778 339.865 80.0498 335.577 80.0498C331.321 80.0498 327.561 78.5138 324.297 75.4418C321.065 72.3698 319.449 68.5618 319.449 64.0178C319.449 59.4418 320.857 55.6178 323.673 52.5458C326.521 49.4738 330.185 47.9378 334.665 47.9378C338.281 47.9378 341.817 48.4978 345.273 49.6178L344.697 51.4418C341.369 50.4178 337.929 49.9058 334.377 49.9058C330.825 49.9058 327.833 51.2658 325.401 53.9858C323.001 56.6738 321.801 59.9858 321.801 63.9218C321.801 67.8258 323.193 71.1538 325.977 73.9058C328.793 76.6578 332.041 78.0338 335.721 78.0338C339.401 78.0338 342.457 77.5218 344.889 76.4978L345.609 78.0338ZM372.391 48.4178L359.095 63.4418C364.343 69.8098 367.927 73.8418 369.847 75.5378C371.799 77.2338 373.735 78.1938 375.655 78.4178L375.607 79.9058C373.815 79.8738 372.359 79.6178 371.239 79.1378C370.119 78.6258 369.127 77.9538 368.263 77.1218C367.399 76.2898 365.543 74.2578 362.695 71.0258C359.879 67.7618 357.767 65.2658 356.359 63.5378L369.751 48.4178H372.391ZM355.687 48.4178V79.5698H353.479V48.4178H355.687ZM241.548 101.762C239.82 101.762 238.412 102.178 237.324 103.01C236.236 103.842 235.692 105.01 235.692 106.514C235.692 108.242 236.412 109.794 237.852 111.17C238.876 112.162 240.188 113.218 241.788 114.338C243.42 115.426 244.54 116.21 245.148 116.69C245.756 117.17 246.492 117.826 247.356 118.658C248.924 120.226 249.708 122.034 249.708 124.082C249.708 126.738 248.812 128.754 247.02 130.13C245.26 131.474 242.78 132.146 239.58 132.146C236.412 132.146 233.756 131.314 231.612 129.65L232.764 127.97C234.94 129.442 237.244 130.178 239.676 130.178C242.108 130.178 243.996 129.666 245.34 128.642C246.716 127.618 247.404 126.178 247.404 124.322C247.404 122.722 246.716 121.25 245.34 119.906C244.38 118.946 243.084 117.906 241.452 116.786C239.852 115.666 238.732 114.866 238.092 114.386C237.452 113.874 236.7 113.202 235.836 112.37C234.204 110.738 233.388 108.85 233.388 106.706C233.388 104.562 234.14 102.882 235.644 101.666C237.18 100.45 239.292 99.8418 241.98 99.8418C244.668 99.8418 247.084 100.37 249.228 101.426L248.412 103.202C246.428 102.242 244.14 101.762 241.548 101.762ZM266.477 123.986L275.453 101.042H276.845L284.669 124.13L285.821 128.018C285.917 127.41 286.317 126.13 287.021 124.178L294.989 100.418H297.293L286.445 131.762H285.149C279.805 116.434 277.037 108.466 276.845 107.858C276.557 106.994 276.269 106.146 275.981 105.314C275.821 105.858 275.389 106.994 274.685 108.722L265.613 131.762H264.317L253.373 100.418H255.821L263.741 123.794C264.189 125.074 264.605 126.498 264.989 128.066C265.149 127.426 265.645 126.066 266.477 123.986ZM303.651 131.57V100.418H305.859V131.57H303.651ZM317.385 131.57V100.418H333.369V102.338H319.593V113.666H332.169V115.538H319.593V131.57H317.385ZM347.469 102.386H336.909V100.418H360.189V102.386H349.629V131.57H347.469V102.386ZM241.548 153.762C239.82 153.762 238.412 154.178 237.324 155.01C236.236 155.842 235.692 157.01 235.692 158.514C235.692 160.242 236.412 161.794 237.852 163.17C238.876 164.162 240.188 165.218 241.788 166.338C243.42 167.426 244.54 168.21 245.148 168.69C245.756 169.17 246.492 169.826 247.356 170.658C248.924 172.226 249.708 174.034 249.708 176.082C249.708 178.738 248.812 180.754 247.02 182.13C245.26 183.474 242.78 184.146 239.58 184.146C236.412 184.146 233.756 183.314 231.612 181.65L232.764 179.97C234.94 181.442 237.244 182.178 239.676 182.178C242.108 182.178 243.996 181.666 245.34 180.642C246.716 179.618 247.404 178.178 247.404 176.322C247.404 174.722 246.716 173.25 245.34 171.906C244.38 170.946 243.084 169.906 241.452 168.786C239.852 167.666 238.732 166.866 238.092 166.386C237.452 165.874 236.7 165.202 235.836 164.37C234.204 162.738 233.388 160.85 233.388 158.706C233.388 156.562 234.14 154.882 235.644 153.666C237.18 152.45 239.292 151.842 241.98 151.842C244.668 151.842 247.084 152.37 249.228 153.426L248.412 155.202C246.428 154.242 244.14 153.762 241.548 153.762ZM258.557 183.57V152.418H273.101V154.338H260.765V165.666H271.901V167.538H260.765V181.554H273.581V183.57H258.557ZM282.416 183.57V152.562C285.168 152.338 287.504 152.226 289.424 152.226C292.368 152.226 294.8 152.994 296.72 154.53C298.64 156.034 299.6 158.194 299.6 161.01C299.6 162.898 299.056 164.642 297.968 166.242C296.88 167.842 295.648 169.138 294.272 170.13C298.08 175.186 300.432 178.21 301.328 179.202C303.152 181.09 305.136 182.162 307.28 182.418L307.232 183.906C305.44 183.874 303.984 183.618 302.864 183.138C301.744 182.626 300.624 181.778 299.504 180.594C298.416 179.41 296 176.226 292.256 171.042C289.664 171.042 287.12 170.962 284.624 170.802V183.57H282.416ZM291.056 169.218C292.304 169.218 293.648 168.386 295.088 166.722C296.528 165.058 297.248 163.122 297.248 160.914C297.248 158.706 296.496 157.026 294.992 155.874C293.488 154.722 291.536 154.146 289.136 154.146C287.856 154.146 286.352 154.21 284.624 154.338V168.978C286.928 169.138 289.072 169.218 291.056 169.218ZM320.249 177.042L330.665 152.418H332.969L319.577 183.762H318.281L304.889 152.418H307.289L319.049 180.114C319.209 179.634 319.609 178.61 320.249 177.042ZM339.323 183.57V152.418H341.531V183.57H339.323ZM377.297 182.034C374.897 183.378 371.553 184.05 367.265 184.05C363.009 184.05 359.249 182.514 355.985 179.442C352.753 176.37 351.137 172.562 351.137 168.018C351.137 163.442 352.545 159.618 355.361 156.546C358.209 153.474 361.873 151.938 366.353 151.938C369.969 151.938 373.505 152.498 376.961 153.618L376.385 155.442C373.057 154.418 369.617 153.906 366.065 153.906C362.513 153.906 359.521 155.266 357.089 157.986C354.689 160.674 353.489 163.986 353.489 167.922C353.489 171.826 354.881 175.154 357.665 177.906C360.481 180.658 363.729 182.034 367.409 182.034C371.089 182.034 374.145 181.522 376.577 180.498L377.297 182.034ZM385.166 183.57V152.418H399.71V154.338H387.374V165.666H398.51V167.538H387.374V181.554H400.19V183.57H385.166Z" fill="black" fill-opacity="0.2" shape-rendering="crispEdges"/>
<path d="M237.324 51.0098L187.513 -14.1275L187.513 -14.1275L237.324 51.0098ZM237.852 59.1698L294.907 0.274109L294.705 0.0786591L294.502 -0.115406L237.852 59.1698ZM241.788 62.3378L194.764 129.515L195.527 130.049L196.303 130.566L241.788 62.3378ZM245.148 64.6898L194.337 129.05L194.337 129.05L245.148 64.6898ZM247.356 66.6578L305.339 8.67506L304.792 8.12811L304.235 7.59158L247.356 66.6578ZM247.02 78.1298L296.787 143.301L296.874 143.235L296.96 143.168L247.02 78.1298ZM231.612 77.6498L163.984 31.2765L120.266 95.0316L181.336 142.429L231.612 77.6498ZM232.764 75.9698L278.709 8.05058L211.218 -37.6056L165.136 29.5965L232.764 75.9698ZM245.34 76.6418L196.385 10.8587L196.013 11.1355L195.644 11.4164L245.34 76.6418ZM245.34 67.9058L187.357 125.889L187.698 126.23L188.043 126.567L245.34 67.9058ZM241.452 64.7858L194.428 131.963L194.739 132.181L195.053 132.396L241.452 64.7858ZM238.092 62.3858L186.867 126.417L187.867 127.217L188.892 127.986L238.092 62.3858ZM235.836 60.3698L177.853 118.353L178.4 118.9L178.957 119.436L235.836 60.3698ZM235.644 49.6658L184.746 -14.6259L184.416 -14.3646L184.089 -14.0998L235.644 49.6658ZM249.228 49.4258L323.74 83.6608L357.064 11.1321L285.46 -24.1355L249.228 49.4258ZM248.412 51.2018L212.696 125.015L287.998 161.451L322.924 85.4368L248.412 51.2018ZM241.548 -32.2382C226.593 -32.2382 206.284 -28.4816 187.513 -14.1275L287.135 116.147C270.54 128.837 253.047 131.762 241.548 131.762V-32.2382ZM187.513 -14.1275C163.952 3.89011 153.692 30.3517 153.692 54.5138H317.692C317.692 63.7356 315.988 75.2038 310.433 87.1307C304.763 99.304 296.427 109.041 287.135 116.147L187.513 -14.1275ZM153.692 54.5138C153.692 82.1115 166.268 104.185 181.202 118.455L294.502 -0.115406C299.993 5.13075 306.019 12.5543 310.617 22.4652C315.325 32.6132 317.692 43.5815 317.692 54.5138H153.692ZM180.797 118.066C185.842 122.953 190.809 126.746 194.764 129.515L288.812 -4.8392C289.567 -4.31072 291.91 -2.62929 294.907 0.274109L180.797 118.066ZM196.303 130.566C196.803 130.899 196.942 130.999 196.828 130.919C196.762 130.873 196.532 130.711 196.184 130.456C195.87 130.227 195.206 129.736 194.337 129.05L295.959 0.329472C292.457 -2.43548 288.802 -4.8714 287.273 -5.8903L196.303 130.566ZM194.337 129.05C193.071 128.051 192.136 127.237 191.596 126.756C191.031 126.253 190.649 125.889 190.477 125.724L304.235 7.59158C302.36 5.78623 299.486 3.11404 295.959 0.329384L194.337 129.05ZM189.373 124.641C183.773 119.04 178.082 111.483 173.889 101.812C169.64 92.0148 167.708 81.8305 167.708 72.0818H331.708C331.708 46.3773 320.88 24.2166 305.339 8.67506L189.373 124.641ZM167.708 72.0818C167.708 64.2321 169.042 53.6711 174.103 42.2825C179.348 30.4833 187.402 20.523 197.08 13.0915L296.96 143.168C322.652 123.44 331.708 95.1808 331.708 72.0818H167.708ZM197.253 12.9589C214.91 -0.52486 232.529 -1.85418 239.58 -1.85418V162.146C253.031 162.146 275.61 159.473 296.787 143.301L197.253 12.9589ZM239.58 -1.85418C251.445 -1.85418 267.33 1.57196 281.888 12.8709L181.336 142.429C200.182 157.056 221.379 162.146 239.58 162.146V-1.85418ZM299.24 124.023L300.392 122.343L165.136 29.5965L163.984 31.2765L299.24 124.023ZM186.819 143.889C201.419 153.766 219.541 160.178 239.676 160.178V-3.82217C254.947 -3.82217 268.461 1.11793 278.709 8.05058L186.819 143.889ZM239.676 160.178C252.43 160.178 274.341 157.635 295.036 141.867L195.644 11.4164C213.651 -2.30306 231.786 -3.82217 239.676 -3.82217V160.178ZM294.295 142.425C318.368 124.51 329.404 97.6253 329.404 72.3218H165.404C165.404 63.0023 167.175 51.4237 172.899 39.4436C178.727 27.2452 187.199 17.6948 196.385 10.8587L294.295 142.425ZM329.404 72.3218C329.404 44.2669 316.381 22.6695 302.637 9.24498L188.043 126.567C177.051 115.83 165.404 97.1767 165.404 72.3218H329.404ZM303.323 9.92305C297.595 4.19573 291.931 -0.0241585 287.851 -2.82426L195.053 132.396C194.49 132.01 193.54 131.333 192.327 130.36C191.141 129.408 189.392 127.923 187.357 125.889L303.323 9.92305ZM288.476 -2.3912C287.809 -2.85811 287.355 -3.1795 287.074 -3.38033C286.937 -3.47817 286.882 -3.51822 286.892 -3.51056C286.9 -3.5051 286.936 -3.47862 286.997 -3.43378C287.056 -3.39001 287.157 -3.3152 287.292 -3.21421L188.892 127.986C190.723 129.359 192.838 130.85 194.428 131.963L288.476 -2.3912ZM289.317 -1.64541C290.389 -0.787525 291.193 -0.0872955 291.687 0.354019C292.196 0.808884 292.545 1.14069 292.715 1.30355L178.957 119.436C180.884 121.291 183.598 123.802 186.867 126.417L289.317 -1.64541ZM293.819 2.38708C299.43 7.99784 305.102 15.5526 309.271 25.1976C313.49 34.9605 315.388 45.0726 315.388 54.7058H151.388C151.388 80.3698 162.143 102.643 177.853 118.353L293.819 2.38708ZM315.388 54.7058C315.388 63.2932 313.852 74.0445 308.796 85.3395C303.63 96.8804 295.959 106.349 287.199 113.431L184.089 -14.0998C161.074 4.50775 151.388 30.8534 151.388 54.7058H315.388ZM286.542 113.958C269.033 127.819 250.966 129.842 241.98 129.842V-34.1582C227.618 -34.1582 205.327 -30.9189 184.746 -14.6259L286.542 113.958ZM241.98 129.842C233.683 129.842 223.46 128.141 212.996 122.987L285.46 -24.1355C270.708 -31.4011 255.653 -34.1582 241.98 -34.1582V129.842ZM174.716 15.1908L173.9 16.9668L322.924 85.4368L323.74 83.6608L174.716 15.1908ZM284.128 -22.6112C269.213 -29.8284 254.347 -32.2382 241.548 -32.2382V131.762C233.933 131.762 223.643 130.312 212.696 125.015L284.128 -22.6112ZM264.125 50.3858H346.125V-31.6142H264.125V50.3858ZM253.565 50.3858H171.565V132.386H253.565V50.3858ZM253.565 48.4178V-33.5822H171.565V48.4178H253.565ZM276.845 48.4178H358.845V-33.5822H276.845V48.4178ZM276.845 50.3858V132.386H358.845V50.3858H276.845ZM266.285 50.3858V-31.6142H184.285V50.3858H266.285ZM266.285 79.5698V161.57H348.285V79.5698H266.285ZM264.125 79.5698H182.125V161.57H264.125V79.5698ZM264.125 -31.6142H253.565V132.386H264.125V-31.6142ZM335.565 50.3858V48.4178H171.565V50.3858H335.565ZM253.565 130.418H276.845V-33.5822H253.565V130.418ZM194.845 48.4178V50.3858H358.845V48.4178H194.845ZM276.845 -31.6142H266.285V132.386H276.845V-31.6142ZM184.285 50.3858V79.5698H348.285V50.3858H184.285ZM266.285 -2.43018H264.125V161.57H266.285V-2.43018ZM346.125 79.5698V50.3858H182.125V79.5698H346.125ZM284.868 75.3938L343.754 18.3288L284.868 75.3938ZM284.868 52.5938L343.754 109.659L284.868 52.5938ZM307.236 52.5938L366.122 -4.47116L366.122 -4.47118L307.236 52.5938ZM307.236 75.3938L366.122 132.459L366.122 132.459L307.236 75.3938ZM286.452 53.9858L226.739 -2.21408L226.563 -2.02672L226.388 -1.83826L286.452 53.9858ZM286.452 74.0018L226.388 129.826L226.728 130.192L227.072 130.554L286.452 74.0018ZM305.652 74.0018L365.385 130.18L365.551 130.003L365.716 129.826L305.652 74.0018ZM305.652 53.9858L365.716 -1.83825L365.715 -1.83829L305.652 53.9858ZM296.052 -1.95018C303.543 -1.95018 312.343 -0.601284 321.435 3.18391C330.577 6.98982 338.05 12.4432 343.754 18.3288L225.981 132.459C244.932 152.015 270.135 162.05 296.052 162.05V-1.95018ZM343.754 18.3288C349.28 24.0316 354.262 31.3047 357.707 39.9897C361.13 48.6198 362.356 56.9249 362.356 64.0178H198.356C198.356 88.9364 207.559 113.449 225.981 132.459L343.754 18.3288ZM362.356 64.0178C362.356 71.0206 361.155 79.28 357.751 87.9001C354.32 96.5858 349.335 103.9 343.754 109.659L225.981 -4.47117C207.443 14.6588 198.356 39.2406 198.356 64.0178H362.356ZM343.754 109.659C338.05 115.544 330.577 120.998 321.435 124.804C312.343 128.589 303.543 129.938 296.052 129.938V-34.0622C270.135 -34.0622 244.932 -24.027 225.981 -4.47117L343.754 109.659ZM296.052 129.938C288.56 129.938 279.761 128.589 270.668 124.804C261.526 120.998 254.053 115.544 248.349 109.659L366.122 -4.47118C347.171 -24.027 321.969 -34.0622 296.052 -34.0622V129.938ZM248.349 109.659C242.768 103.9 237.783 96.5858 234.353 87.9001C230.948 79.28 229.748 71.0206 229.748 64.0178H393.748C393.748 39.2406 384.66 14.6588 366.122 -4.47116L248.349 109.659ZM229.748 64.0178C229.748 56.9249 230.973 48.6198 234.396 39.9897C237.841 31.3047 242.823 24.0316 248.349 18.3288L366.122 132.459C384.544 113.449 393.748 88.9364 393.748 64.0178H229.748ZM248.349 18.3288C254.053 12.4432 261.526 6.98981 270.668 3.18391C279.761 -0.601284 288.56 -1.95018 296.052 -1.95018V162.05C321.969 162.05 347.171 152.015 366.122 132.459L248.349 18.3288ZM296.052 -32.0942C270.318 -32.0942 245.28 -21.9132 226.739 -2.21408L346.164 110.186C340.25 116.47 332.451 122.31 322.845 126.393C313.29 130.454 303.998 131.906 296.052 131.906V-32.0942ZM226.388 -1.83826C208.736 17.154 200.66 40.8947 200.66 64.0178H364.66C364.66 70.8531 363.545 78.9698 360.311 87.5269C357.041 96.1767 352.198 103.696 346.516 109.81L226.388 -1.83826ZM200.66 64.0178C200.66 87.3015 208.859 110.966 226.388 129.826L346.516 18.1777C352.138 24.2272 356.979 31.7001 360.265 40.3508C363.519 48.92 364.66 57.086 364.66 64.0178H200.66ZM227.072 130.554C245.7 150.113 270.641 160.034 296.052 160.034V-3.96618C303.873 -3.96618 313.051 -2.55559 322.525 1.42329C332.059 5.42774 339.864 11.1846 345.831 17.4501L227.072 130.554ZM296.052 160.034C321.29 160.034 346.521 150.237 365.385 130.18L245.918 17.8241C252.013 11.3434 259.959 5.4734 269.603 1.42329C279.157 -2.58969 288.344 -3.96618 296.052 -3.96618V160.034ZM365.716 129.826C383.244 110.966 391.444 87.3015 391.444 64.0178H227.444C227.444 57.086 228.584 48.92 231.838 40.3509C235.124 31.7001 239.965 24.2272 245.588 18.1777L365.716 129.826ZM391.444 64.0178C391.444 40.8947 383.367 17.154 365.716 -1.83825L245.588 109.81C239.905 103.696 235.062 96.1767 231.792 87.5269C228.558 78.9698 227.444 70.8531 227.444 64.0178H391.444ZM365.715 -1.83829C346.941 -22.0385 321.614 -32.0942 296.052 -32.0942V131.906C288.22 131.906 278.92 130.489 269.282 126.393C259.566 122.264 251.628 116.309 245.588 109.81L365.715 -1.83829ZM345.609 78.0338L385.675 149.579L452.236 112.305L419.857 43.2303L345.609 78.0338ZM324.297 75.4418L267.804 134.877L267.951 135.016L268.097 135.154L324.297 75.4418ZM323.673 52.5458L263.54 -3.20309L263.383 -3.03378L263.227 -2.86359L323.673 52.5458ZM345.273 49.6178L423.467 74.3106L447.975 -3.29769L370.553 -28.3882L345.273 49.6178ZM344.697 51.4418L320.582 129.816L398.38 153.753L422.891 76.1346L344.697 51.4418ZM325.401 53.9858L264.273 -0.670334L264.254 -0.648907L264.234 -0.627464L325.401 53.9858ZM325.977 73.9058L268.331 132.223L268.497 132.387L268.665 132.551L325.977 73.9058ZM344.889 76.4978L419.137 41.6943L385.692 -29.6546L313.069 0.923729L344.889 76.4978ZM305.544 6.48833C313.345 2.11992 320.363 0.114269 325.146 -0.846962C329.944 -1.81116 333.613 -1.95018 335.577 -1.95018V162.05C346.764 162.05 366.037 160.577 385.675 149.579L305.544 6.48833ZM335.577 -1.95018C343.566 -1.95018 352.144 -0.456963 360.576 2.98755C368.933 6.40182 375.557 11.0797 380.497 15.7294L268.097 135.154C285.681 151.704 309.241 162.05 335.577 162.05V-1.95018ZM380.79 16.0066C386.672 21.5975 392.233 29.0292 396.146 38.2486C400.044 47.434 401.449 56.3727 401.449 64.0178H237.449C237.449 90.5474 247.938 115.994 267.804 134.877L380.79 16.0066ZM401.449 64.0178C401.449 70.2184 400.476 77.8454 397.455 86.0507C394.388 94.3818 389.755 101.808 384.12 107.955L263.227 -2.86359C245.141 16.8668 237.449 41.1082 237.449 64.0178H401.449ZM383.807 108.295C377.721 114.859 369.797 120.715 360.26 124.714C350.849 128.659 341.926 129.938 334.665 129.938V-34.0622C309.138 -34.0622 283.073 -24.2732 263.54 -3.20309L383.807 108.295ZM334.665 129.938C329.657 129.938 324.664 129.137 319.994 127.624L370.553 -28.3882C358.97 -32.1418 346.906 -34.0622 334.665 -34.0622V129.938ZM267.08 24.925L266.504 26.749L422.891 76.1346L423.467 74.3106L267.08 24.925ZM368.812 -26.9321C357.514 -30.4084 345.937 -32.0942 334.377 -32.0942V131.906C329.922 131.906 325.224 131.244 320.582 129.816L368.812 -26.9321ZM334.377 -32.0942C306.772 -32.0942 281.778 -20.2489 264.273 -0.670334L386.53 108.642C381.004 114.822 373.347 121.055 363.401 125.576C353.401 130.121 343.348 131.906 334.377 131.906V-32.0942ZM264.234 -0.627464C247.135 18.5236 239.801 41.852 239.801 63.9218H403.801C403.801 70.3692 402.799 78.1323 399.797 86.419C396.754 94.8181 392.167 102.329 386.568 108.599L264.234 -0.627464ZM239.801 63.9218C239.801 89.805 250.011 114.114 268.331 132.223L383.624 15.5889C389.275 21.1745 394.666 28.551 398.495 37.7041C402.325 46.8618 403.801 55.9113 403.801 63.9218H239.801ZM268.665 132.551C285.619 149.12 309.022 160.034 335.721 160.034V-3.96618C344.387 -3.96618 353.58 -2.28614 362.512 1.49792C371.341 5.23811 378.229 10.3148 383.29 15.2605L268.665 132.551ZM335.721 160.034C346.315 160.034 361.068 158.658 376.71 152.072L313.069 0.923729C323.847 -3.61435 332.487 -3.96618 335.721 -3.96618V160.034ZM270.642 111.301L271.362 112.837L419.857 43.2303L419.137 41.6943L270.642 111.301ZM372.391 48.4178L433.797 102.762L554.459 -33.5822H372.391V48.4178ZM359.095 63.4418L297.688 9.09807L251.274 61.545L295.815 115.592L359.095 63.4418ZM369.847 75.5378L315.56 136.995L315.812 137.217L316.065 137.437L369.847 75.5378ZM375.655 78.4178L457.612 81.0616L460.043 5.70694L385.157 -3.02975L375.655 78.4178ZM375.607 79.9058L374.143 161.893L454.958 163.336L457.564 82.5496L375.607 79.9058ZM371.239 79.1378L337.146 153.715L338.037 154.122L338.937 154.508L371.239 79.1378ZM368.263 77.1218L425.141 18.0556L425.141 18.0556L368.263 77.1218ZM362.695 71.0258L300.608 124.591L300.889 124.916L301.173 125.239L362.695 71.0258ZM356.359 63.5378L294.975 9.16893L248.78 61.3237L292.789 115.335L356.359 63.5378ZM369.751 48.4178V-33.5822H332.84L308.367 -5.95107L369.751 48.4178ZM355.687 48.4178H437.687V-33.5822H355.687V48.4178ZM355.687 79.5698V161.57H437.687V79.5698H355.687ZM353.479 79.5698H271.479V161.57H353.479V79.5698ZM353.479 48.4178V-33.5822H271.479V48.4178H353.479ZM310.984 -5.92593L297.688 9.09807L420.501 117.786L433.797 102.762L310.984 -5.92593ZM295.815 115.592C300.144 120.846 307.88 130.211 315.56 136.995L424.134 14.081C425.144 14.9731 425.892 15.6888 426.324 16.1105C426.776 16.5517 427.083 16.8683 427.222 17.0127C427.476 17.2766 427.428 17.2383 427.006 16.764C426.611 16.3192 426.025 15.6463 425.221 14.7006C424.426 13.7639 423.481 12.6339 422.375 11.2915L295.815 115.592ZM316.065 137.437C326.345 146.369 343.141 157.181 366.153 159.865L385.157 -3.02975C404.329 -0.793041 417.253 8.0989 423.628 13.6383L316.065 137.437ZM293.697 75.7741L293.649 77.2621L457.564 82.5496L457.612 81.0616L293.697 75.7741ZM377.071 -2.0811C381.336 -2.00494 391.448 -1.41426 403.54 3.76793L338.937 154.508C353.269 160.65 366.293 161.753 374.143 161.893L377.071 -2.0811ZM405.331 4.56092C412.399 7.79212 419.161 12.297 425.141 18.0556L311.384 136.188C319.092 143.611 327.838 149.46 337.146 153.715L405.331 4.56092ZM425.141 18.0556C425.722 18.6145 426.155 19.0508 426.389 19.2899C426.64 19.5451 426.812 19.7256 426.887 19.8041C427.024 19.948 427.001 19.9275 426.768 19.6724C426.551 19.4351 426.23 19.0802 425.789 18.5857C425.351 18.0961 424.83 17.5083 424.217 16.8131L301.173 125.239C303.356 127.716 307.598 132.542 311.384 136.188L425.141 18.0556ZM424.782 17.4607C422.097 14.3492 420.59 12.5532 419.928 11.7407L292.789 115.335C294.943 117.978 297.66 121.174 300.608 124.591L424.782 17.4607ZM417.743 117.907L431.135 102.787L308.367 -5.95107L294.975 9.16893L417.743 117.907ZM369.751 130.418H372.391V-33.5822H369.751V130.418ZM273.687 48.4178V79.5698H437.687V48.4178H273.687ZM355.687 -2.43018H353.479V161.57H355.687V-2.43018ZM435.479 79.5698V48.4178H271.479V79.5698H435.479ZM353.479 130.418H355.687V-33.5822H353.479V130.418ZM237.324 103.01L187.513 37.8725L187.513 37.8725L237.324 103.01ZM237.852 111.17L294.907 52.2741L294.705 52.0787L294.502 51.8846L237.852 111.17ZM241.788 114.338L194.764 181.515L195.527 182.049L196.303 182.566L241.788 114.338ZM245.148 116.69L194.337 181.05L194.337 181.05L245.148 116.69ZM247.356 118.658L305.339 60.6751L304.792 60.1281L304.235 59.5916L247.356 118.658ZM247.02 130.13L296.787 195.301L296.874 195.235L296.96 195.168L247.02 130.13ZM231.612 129.65L163.984 83.2765L120.266 147.032L181.336 194.429L231.612 129.65ZM232.764 127.97L278.709 60.0506L211.218 14.3944L165.136 81.5965L232.764 127.97ZM245.34 128.642L196.385 62.8587L196.013 63.1355L195.644 63.4164L245.34 128.642ZM245.34 119.906L187.357 177.889L187.698 178.23L188.043 178.567L245.34 119.906ZM241.452 116.786L194.428 183.963L194.739 184.181L195.053 184.396L241.452 116.786ZM238.092 114.386L186.867 178.417L187.867 179.217L188.892 179.986L238.092 114.386ZM235.836 112.37L177.853 170.353L178.4 170.9L178.957 171.436L235.836 112.37ZM235.644 101.666L184.746 37.3741L184.416 37.6354L184.089 37.9001L235.644 101.666ZM249.228 101.426L323.74 135.661L357.064 63.1321L285.46 27.8645L249.228 101.426ZM248.412 103.202L212.696 177.015L287.998 213.451L322.924 137.437L248.412 103.202ZM241.548 19.7618C226.593 19.7618 206.284 23.5184 187.513 37.8725L287.135 168.147C270.54 180.837 253.047 183.762 241.548 183.762V19.7618ZM187.513 37.8725C163.952 55.8901 153.692 82.3517 153.692 106.514H317.692C317.692 115.736 315.988 127.204 310.433 139.131C304.763 151.304 296.427 161.041 287.135 168.147L187.513 37.8725ZM153.692 106.514C153.692 134.111 166.268 156.185 181.202 170.455L294.502 51.8846C299.993 57.1308 306.019 64.5543 310.617 74.4652C315.325 84.6132 317.692 95.5815 317.692 106.514H153.692ZM180.797 170.066C185.842 174.953 190.809 178.746 194.764 181.515L288.812 47.1608C289.567 47.6893 291.91 49.3707 294.907 52.2741L180.797 170.066ZM196.303 182.566C196.803 182.899 196.942 182.999 196.828 182.919C196.762 182.873 196.532 182.711 196.184 182.456C195.87 182.227 195.206 181.736 194.337 181.05L295.959 52.3295C292.457 49.5645 288.802 47.1286 287.273 46.1097L196.303 182.566ZM194.337 181.05C193.071 180.051 192.136 179.237 191.596 178.756C191.031 178.253 190.649 177.889 190.477 177.724L304.235 59.5916C302.36 57.7862 299.486 55.114 295.959 52.3294L194.337 181.05ZM189.373 176.641C183.773 171.04 178.082 163.483 173.889 153.812C169.64 144.015 167.708 133.83 167.708 124.082H331.708C331.708 98.3773 320.88 76.2166 305.339 60.6751L189.373 176.641ZM167.708 124.082C167.708 116.232 169.042 105.671 174.103 94.2825C179.348 82.4833 187.402 72.523 197.08 65.0915L296.96 195.168C322.652 175.44 331.708 147.181 331.708 124.082H167.708ZM197.253 64.9589C214.91 51.4751 232.529 50.1458 239.58 50.1458V214.146C253.031 214.146 275.61 211.473 296.787 195.301L197.253 64.9589ZM239.58 50.1458C251.445 50.1458 267.33 53.572 281.888 64.8709L181.336 194.429C200.182 209.056 221.379 214.146 239.58 214.146V50.1458ZM299.24 176.023L300.392 174.343L165.136 81.5965L163.984 83.2765L299.24 176.023ZM186.819 195.889C201.419 205.766 219.541 212.178 239.676 212.178V48.1778C254.947 48.1778 268.461 53.1179 278.709 60.0506L186.819 195.889ZM239.676 212.178C252.43 212.178 274.341 209.635 295.036 193.867L195.644 63.4164C213.651 49.6969 231.786 48.1778 239.676 48.1778V212.178ZM294.295 194.425C318.368 176.51 329.404 149.625 329.404 124.322H165.404C165.404 115.002 167.175 103.424 172.899 91.4436C178.727 79.2452 187.199 69.6948 196.385 62.8587L294.295 194.425ZM329.404 124.322C329.404 96.2669 316.381 74.6695 302.637 61.245L188.043 178.567C177.051 167.83 165.404 149.177 165.404 124.322H329.404ZM303.323 61.9231C297.595 56.1957 291.931 51.9758 287.851 49.1757L195.053 184.396C194.49 184.01 193.54 183.333 192.327 182.36C191.141 181.408 189.392 179.923 187.357 177.889L303.323 61.9231ZM288.476 49.6088C287.809 49.1419 287.355 48.8205 287.074 48.6197C286.937 48.5218 286.882 48.4818 286.892 48.4894C286.9 48.4949 286.936 48.5214 286.997 48.5662C287.056 48.61 287.157 48.6848 287.292 48.7858L188.892 179.986C190.723 181.359 192.838 182.85 194.428 183.963L288.476 49.6088ZM289.317 50.3546C290.389 51.2125 291.193 51.9127 291.687 52.354C292.196 52.8089 292.545 53.1407 292.715 53.3035L178.957 171.436C180.884 173.291 183.598 175.802 186.867 178.417L289.317 50.3546ZM293.819 54.3871C299.43 59.9978 305.102 67.5526 309.271 77.1976C313.49 86.9605 315.388 97.0726 315.388 106.706H151.388C151.388 132.37 162.143 154.643 177.853 170.353L293.819 54.3871ZM315.388 106.706C315.388 115.293 313.852 126.045 308.796 137.339C303.63 148.88 295.959 158.349 287.199 165.431L184.089 37.9001C161.074 56.5077 151.388 82.8534 151.388 106.706H315.388ZM286.542 165.958C269.033 179.819 250.966 181.842 241.98 181.842V17.8418C227.618 17.8418 205.327 21.0811 184.746 37.3741L286.542 165.958ZM241.98 181.842C233.683 181.842 223.46 180.141 212.996 174.987L285.46 27.8645C270.708 20.5989 255.653 17.8418 241.98 17.8418V181.842ZM174.716 67.1908L173.9 68.9668L322.924 137.437L323.74 135.661L174.716 67.1908ZM284.128 29.3888C269.213 22.1716 254.347 19.7618 241.548 19.7618V183.762C233.933 183.762 223.643 182.312 212.696 177.015L284.128 29.3888ZM266.477 123.986L342.612 154.44L342.728 154.151L342.841 153.861L266.477 123.986ZM275.453 101.042V19.0418H219.481L199.089 71.1671L275.453 101.042ZM276.845 101.042L354.507 74.724L335.637 19.0418H276.845V101.042ZM284.669 124.13L363.29 100.835L362.84 99.314L362.331 97.812L284.669 124.13ZM285.821 128.018L207.199 151.313L366.817 140.807L285.821 128.018ZM287.021 124.178L364.158 151.998L364.471 151.127L364.766 150.25L287.021 124.178ZM294.989 100.418V18.4178H236L217.244 74.3458L294.989 100.418ZM297.293 100.418L374.783 127.237L412.445 18.4178H297.293V100.418ZM286.445 131.762V213.762H344.837L363.935 158.581L286.445 131.762ZM285.149 131.762L207.72 158.757L226.897 213.762H285.149V131.762ZM276.845 107.858L355.039 83.1651L354.843 82.5445L354.637 81.9271L276.845 107.858ZM275.981 105.314L353.47 78.4908L269.632 -163.708L197.313 82.1762L275.981 105.314ZM274.685 108.722L198.745 77.7835L198.563 78.2304L198.386 78.6793L274.685 108.722ZM265.613 131.762V213.762H321.453L341.911 161.804L265.613 131.762ZM264.317 131.762L186.9 158.792L206.093 213.762H264.317V131.762ZM253.373 100.418V18.4178H137.887L175.956 127.448L253.373 100.418ZM255.821 100.418L333.484 74.1047L314.617 18.4178H255.821V100.418ZM263.741 123.794L186.077 150.107L186.209 150.495L186.344 150.883L263.741 123.794ZM264.989 128.066L185.342 147.571L344.541 147.954L264.989 128.066ZM342.841 153.861L351.817 130.917L199.089 71.1671L190.113 94.1111L342.841 153.861ZM275.453 183.042H276.845V19.0418H275.453V183.042ZM199.183 127.36L207.007 150.448L362.331 97.812L354.507 74.724L199.183 127.36ZM206.047 147.425L207.199 151.313L364.442 104.723L363.29 100.835L206.047 147.425ZM366.817 140.807C366.242 144.454 365.541 147.195 365.259 148.271C364.909 149.604 364.608 150.589 364.46 151.06C364.172 151.982 364.016 152.391 364.158 151.998L209.884 96.358C209.86 96.4252 206.372 105.428 204.824 115.229L366.817 140.807ZM364.766 150.25L372.734 126.49L217.244 74.3458L209.276 98.1058L364.766 150.25ZM294.989 182.418H297.293V18.4178H294.989V182.418ZM219.803 73.5988L208.955 104.943L363.935 158.581L374.783 127.237L219.803 73.5988ZM286.445 49.7618H285.149V213.762H286.445V49.7618ZM362.578 104.767C359.909 97.1104 357.893 91.3211 356.524 87.3813C355.838 85.4052 355.328 83.9342 354.985 82.9403C354.811 82.4361 354.699 82.112 354.637 81.9303C354.415 81.2793 354.711 82.1259 355.039 83.1651L198.651 132.551C199.329 134.697 202.829 144.73 207.72 158.757L362.578 104.767ZM354.637 81.9271C354.253 80.7752 353.864 79.6296 353.47 78.4908L198.492 132.137C198.674 132.662 198.861 133.212 199.053 133.789L354.637 81.9271ZM197.313 82.1762C197.6 81.2015 197.852 80.4137 198.027 79.8852C198.207 79.3378 198.361 78.8929 198.471 78.5801C198.684 77.9755 198.84 77.5628 198.892 77.4271C198.99 77.1686 198.968 77.2364 198.745 77.7835L350.624 139.66C350.959 138.838 353.101 133.713 354.649 128.451L197.313 82.1762ZM198.386 78.6793L189.314 101.719L341.911 161.804L350.983 138.764L198.386 78.6793ZM265.613 49.7618H264.317V213.762H265.613V49.7618ZM341.734 104.731L330.79 73.3872L175.956 127.448L186.9 158.792L341.734 104.731ZM253.373 182.418H255.821V18.4178H253.373V182.418ZM178.157 126.731L186.077 150.107L341.404 97.4807L333.484 74.1047L178.157 126.731ZM186.344 150.883C185.776 149.258 185.472 148.1 185.342 147.571L344.635 108.561C343.738 104.896 342.602 100.89 341.137 96.7051L186.344 150.883ZM344.541 147.954C344.196 149.331 343.878 150.441 343.659 151.179C343.431 151.945 343.232 152.568 343.088 153.007C342.809 153.856 342.596 154.447 342.517 154.662C342.366 155.076 342.36 155.07 342.612 154.44L190.342 93.5318C190.048 94.267 187.211 101.083 185.437 108.178L344.541 147.954ZM303.651 131.57H221.651V213.57H303.651V131.57ZM303.651 100.418V18.4178H221.651V100.418H303.651ZM305.859 100.418H387.859V18.4178H305.859V100.418ZM305.859 131.57V213.57H387.859V131.57H305.859ZM385.651 131.57V100.418H221.651V131.57H385.651ZM303.651 182.418H305.859V18.4178H303.651V182.418ZM223.859 100.418V131.57H387.859V100.418H223.859ZM305.859 49.5698H303.651V213.57H305.859V49.5698ZM317.385 131.57H235.385V213.57H317.385V131.57ZM317.385 100.418V18.4178H235.385V100.418H317.385ZM333.369 100.418H415.369V18.4178H333.369V100.418ZM333.369 102.338V184.338H415.369V102.338H333.369ZM319.593 102.338V20.3378H237.593V102.338H319.593ZM319.593 113.666H237.593V195.666H319.593V113.666ZM332.169 113.666H414.169V31.6658H332.169V113.666ZM332.169 115.538V197.538H414.169V115.538H332.169ZM319.593 115.538V33.5378H237.593V115.538H319.593ZM319.593 131.57V213.57H401.593V131.57H319.593ZM399.385 131.57V100.418H235.385V131.57H399.385ZM317.385 182.418H333.369V18.4178H317.385V182.418ZM251.369 100.418V102.338H415.369V100.418H251.369ZM333.369 20.3378H319.593V184.338H333.369V20.3378ZM237.593 102.338V113.666H401.593V102.338H237.593ZM319.593 195.666H332.169V31.6658H319.593V195.666ZM250.169 113.666V115.538H414.169V113.666H250.169ZM332.169 33.5378H319.593V197.538H332.169V33.5378ZM237.593 115.538V131.57H401.593V115.538H237.593ZM319.593 49.5698H317.385V213.57H319.593V49.5698ZM347.469 102.386H429.469V20.3858H347.469V102.386ZM336.909 102.386H254.909V184.386H336.909V102.386ZM336.909 100.418V18.4178H254.909V100.418H336.909ZM360.189 100.418H442.189V18.4178H360.189V100.418ZM360.189 102.386V184.386H442.189V102.386H360.189ZM349.629 102.386V20.3858H267.629V102.386H349.629ZM349.629 131.57V213.57H431.629V131.57H349.629ZM347.469 131.57H265.469V213.57H347.469V131.57ZM347.469 20.3858H336.909V184.386H347.469V20.3858ZM418.909 102.386V100.418H254.909V102.386H418.909ZM336.909 182.418H360.189V18.4178H336.909V182.418ZM278.189 100.418V102.386H442.189V100.418H278.189ZM360.189 20.3858H349.629V184.386H360.189V20.3858ZM267.629 102.386V131.57H431.629V102.386H267.629ZM349.629 49.5698H347.469V213.57H349.629V49.5698ZM429.469 131.57V102.386H265.469V131.57H429.469ZM237.324 155.01L187.513 89.8725L187.513 89.8725L237.324 155.01ZM237.852 163.17L294.907 104.274L294.705 104.079L294.502 103.885L237.852 163.17ZM241.788 166.338L194.764 233.515L195.527 234.049L196.303 234.566L241.788 166.338ZM245.148 168.69L194.337 233.05L194.337 233.05L245.148 168.69ZM247.356 170.658L305.339 112.675L304.792 112.128L304.235 111.592L247.356 170.658ZM247.02 182.13L296.787 247.301L296.874 247.235L296.96 247.168L247.02 182.13ZM231.612 181.65L163.984 135.276L120.266 199.032L181.336 246.429L231.612 181.65ZM232.764 179.97L278.709 112.051L211.218 66.3944L165.136 133.596L232.764 179.97ZM245.34 180.642L196.385 114.859L196.013 115.135L195.644 115.416L245.34 180.642ZM245.34 171.906L187.357 229.889L187.698 230.23L188.043 230.567L245.34 171.906ZM241.452 168.786L194.428 235.963L194.739 236.181L195.053 236.396L241.452 168.786ZM238.092 166.386L186.867 230.417L187.867 231.217L188.892 231.986L238.092 166.386ZM235.836 164.37L177.853 222.353L178.4 222.9L178.957 223.436L235.836 164.37ZM235.644 153.666L184.746 89.3741L184.416 89.6354L184.089 89.9002L235.644 153.666ZM249.228 153.426L323.74 187.661L357.064 115.132L285.46 79.8645L249.228 153.426ZM248.412 155.202L212.696 229.015L287.998 265.451L322.924 189.437L248.412 155.202ZM241.548 71.7618C226.593 71.7618 206.284 75.5184 187.513 89.8725L287.135 220.147C270.54 232.837 253.047 235.762 241.548 235.762V71.7618ZM187.513 89.8725C163.952 107.89 153.692 134.352 153.692 158.514H317.692C317.692 167.736 315.988 179.204 310.433 191.131C304.763 203.304 296.427 213.041 287.135 220.147L187.513 89.8725ZM153.692 158.514C153.692 186.111 166.268 208.185 181.202 222.455L294.502 103.885C299.993 109.131 306.019 116.554 310.617 126.465C315.325 136.613 317.692 147.582 317.692 158.514H153.692ZM180.797 222.066C185.842 226.953 190.809 230.746 194.764 233.515L288.812 99.1608C289.567 99.6893 291.91 101.371 294.907 104.274L180.797 222.066ZM196.303 234.566C196.803 234.899 196.942 234.999 196.828 234.919C196.762 234.873 196.532 234.711 196.184 234.456C195.87 234.227 195.206 233.736 194.337 233.05L295.959 104.329C292.457 101.565 288.802 99.1286 287.273 98.1097L196.303 234.566ZM194.337 233.05C193.071 232.051 192.136 231.237 191.596 230.756C191.031 230.253 190.649 229.889 190.477 229.724L304.235 111.592C302.36 109.786 299.486 107.114 295.959 104.329L194.337 233.05ZM189.373 228.641C183.773 223.04 178.082 215.483 173.889 205.812C169.64 196.015 167.708 185.83 167.708 176.082H331.708C331.708 150.377 320.88 128.217 305.339 112.675L189.373 228.641ZM167.708 176.082C167.708 168.232 169.042 157.671 174.103 146.282C179.348 134.483 187.402 124.523 197.08 117.091L296.96 247.168C322.652 227.44 331.708 199.181 331.708 176.082H167.708ZM197.253 116.959C214.91 103.475 232.529 102.146 239.58 102.146V266.146C253.031 266.146 275.61 263.473 296.787 247.301L197.253 116.959ZM239.58 102.146C251.445 102.146 267.33 105.572 281.888 116.871L181.336 246.429C200.182 261.056 221.379 266.146 239.58 266.146V102.146ZM299.24 228.023L300.392 226.343L165.136 133.596L163.984 135.276L299.24 228.023ZM186.819 247.889C201.419 257.766 219.541 264.178 239.676 264.178V100.178C254.947 100.178 268.461 105.118 278.709 112.051L186.819 247.889ZM239.676 264.178C252.43 264.178 274.341 261.635 295.036 245.867L195.644 115.416C213.651 101.697 231.786 100.178 239.676 100.178V264.178ZM294.295 246.425C318.368 228.51 329.404 201.625 329.404 176.322H165.404C165.404 167.002 167.175 155.424 172.899 143.444C178.727 131.245 187.199 121.695 196.385 114.859L294.295 246.425ZM329.404 176.322C329.404 148.267 316.381 126.669 302.637 113.245L188.043 230.567C177.051 219.83 165.404 201.177 165.404 176.322H329.404ZM303.323 113.923C297.595 108.196 291.931 103.976 287.851 101.176L195.053 236.396C194.49 236.01 193.54 235.333 192.327 234.36C191.141 233.408 189.392 231.923 187.357 229.889L303.323 113.923ZM288.476 101.609C287.809 101.142 287.355 100.82 287.074 100.62C286.937 100.522 286.882 100.482 286.892 100.489C286.9 100.495 286.936 100.521 286.997 100.566C287.056 100.61 287.157 100.685 287.292 100.786L188.892 231.986C190.723 233.359 192.838 234.85 194.428 235.963L288.476 101.609ZM289.317 102.355C290.389 103.212 291.193 103.913 291.687 104.354C292.196 104.809 292.545 105.141 292.715 105.304L178.957 223.436C180.884 225.291 183.598 227.802 186.867 230.417L289.317 102.355ZM293.819 106.387C299.43 111.998 305.102 119.553 309.271 129.198C313.49 138.96 315.388 149.073 315.388 158.706H151.388C151.388 184.37 162.143 206.643 177.853 222.353L293.819 106.387ZM315.388 158.706C315.388 167.293 313.852 178.045 308.796 189.339C303.63 200.88 295.959 210.349 287.199 217.432L184.089 89.9002C161.074 108.508 151.388 134.853 151.388 158.706H315.388ZM286.542 217.958C269.033 231.819 250.966 233.842 241.98 233.842V69.8418C227.618 69.8418 205.327 73.0811 184.746 89.3741L286.542 217.958ZM241.98 233.842C233.683 233.842 223.46 232.141 212.996 226.987L285.46 79.8645C270.708 72.5989 255.653 69.8418 241.98 69.8418V233.842ZM174.716 119.191L173.9 120.967L322.924 189.437L323.74 187.661L174.716 119.191ZM284.128 81.3888C269.213 74.1716 254.347 71.7618 241.548 71.7618V235.762C233.933 235.762 223.643 234.312 212.696 229.015L284.128 81.3888ZM258.557 183.57H176.557V265.57H258.557V183.57ZM258.557 152.418V70.4178H176.557V152.418H258.557ZM273.101 152.418H355.101V70.4178H273.101V152.418ZM273.101 154.338V236.338H355.101V154.338H273.101ZM260.765 154.338V72.3378H178.765V154.338H260.765ZM260.765 165.666H178.765V247.666H260.765V165.666ZM271.901 165.666H353.901V83.6658H271.901V165.666ZM271.901 167.538V249.538H353.901V167.538H271.901ZM260.765 167.538V85.5378H178.765V167.538H260.765ZM260.765 181.554H178.765V263.554H260.765V181.554ZM273.581 181.554H355.581V99.5538H273.581V181.554ZM273.581 183.57V265.57H355.581V183.57H273.581ZM340.557 183.57V152.418H176.557V183.57H340.557ZM258.557 234.418H273.101V70.4178H258.557V234.418ZM191.101 152.418V154.338H355.101V152.418H191.101ZM273.101 72.3378H260.765V236.338H273.101V72.3378ZM178.765 154.338V165.666H342.765V154.338H178.765ZM260.765 247.666H271.901V83.6658H260.765V247.666ZM189.901 165.666V167.538H353.901V165.666H189.901ZM271.901 85.5378H260.765V249.538H271.901V85.5378ZM178.765 167.538V181.554H342.765V167.538H178.765ZM260.765 263.554H273.581V99.5538H260.765V263.554ZM191.581 181.554V183.57H355.581V181.554H191.581ZM273.581 101.57H258.557V265.57H273.581V101.57ZM282.416 183.57H200.416V265.57H282.416V183.57ZM282.416 152.562L275.764 70.8321L200.416 76.9651V152.562H282.416ZM296.72 154.53L245.495 218.561L245.823 218.823L246.154 219.083L296.72 154.53ZM297.968 166.242L365.776 212.351L297.968 166.242ZM294.272 170.13L246.319 103.613L178.398 152.579L228.772 219.462L294.272 170.13ZM301.328 179.202L240.476 234.165L241.398 235.187L242.355 236.176L301.328 179.202ZM307.28 182.418L389.238 185.062L391.662 109.911L317.002 100.996L307.28 182.418ZM307.232 183.906L305.768 265.893L386.584 267.336L389.19 186.55L307.232 183.906ZM302.864 183.138L268.772 257.715L269.663 258.122L270.563 258.508L302.864 183.138ZM299.504 180.594L239.125 236.077L239.526 236.514L239.934 236.944L299.504 180.594ZM292.256 171.042L358.732 123.032L334.184 89.0418H292.256V171.042ZM284.624 170.802L289.87 88.9698L202.624 83.3771V170.802H284.624ZM284.624 183.57V265.57H366.624V183.57H284.624ZM295.088 166.722L233.082 113.063L233.082 113.063L295.088 166.722ZM294.992 155.874L344.855 90.7758L344.855 90.7758L294.992 155.874ZM284.624 154.338L278.567 72.5619L202.624 78.1872V154.338H284.624ZM284.624 168.978H202.624V245.481L278.943 250.781L284.624 168.978ZM364.416 183.57V152.562H200.416V183.57H364.416ZM289.069 234.292C289.374 234.267 289.619 234.249 289.806 234.237C289.993 234.224 290.109 234.218 290.159 234.216C290.21 234.213 290.176 234.215 290.063 234.218C289.953 234.221 289.736 234.226 289.424 234.226V70.2258C284.557 70.2258 279.861 70.4986 275.764 70.8321L289.069 234.292ZM289.424 234.226C277.56 234.226 260.836 230.833 245.495 218.561L347.945 90.4986C328.765 75.1542 307.176 70.2258 289.424 70.2258V234.226ZM246.154 219.083C236.908 211.84 229.09 202.151 223.948 190.581C218.964 179.367 217.6 168.914 217.6 161.01H381.6C381.6 137.387 372.272 109.549 347.287 89.9771L246.154 219.083ZM217.6 161.01C217.6 146.024 222.245 131.772 230.16 120.132L365.776 212.351C375.867 197.511 381.6 179.772 381.6 161.01H217.6ZM230.16 120.132C233.703 114.923 238.928 108.941 246.319 103.613L342.226 236.646C352.368 229.335 360.057 220.761 365.776 212.351L230.16 120.132ZM228.772 219.462C231.513 223.102 236.512 229.777 240.476 234.165L362.181 124.238C362.952 125.093 363.499 125.739 363.712 125.993C363.965 126.294 364.118 126.484 364.141 126.512C364.177 126.556 364.024 126.368 363.619 125.847C362.816 124.814 361.562 123.174 359.773 120.797L228.772 219.462ZM242.355 236.176C254.364 248.607 272.876 260.892 297.558 263.839L317.002 100.996C337.397 103.431 351.94 113.572 360.302 122.227L242.355 236.176ZM225.323 179.774L225.275 181.262L389.19 186.55L389.238 185.062L225.323 179.774ZM308.696 101.919C312.962 101.995 323.074 102.586 335.166 107.768L270.563 258.508C284.895 264.65 297.919 265.753 305.768 265.893L308.696 101.919ZM336.957 108.561C347.974 113.597 355.169 120.115 359.075 124.243L239.934 236.944C246.079 243.441 255.515 251.654 268.772 257.715L336.957 108.561ZM359.883 125.111C360.762 126.067 361.401 126.815 361.722 127.196C362.072 127.611 362.308 127.903 362.402 128.02C362.573 128.234 362.529 128.185 362.199 127.751C361.894 127.349 361.452 126.758 360.852 125.943C360.258 125.136 359.554 124.17 358.732 123.032L225.781 219.052C228.475 222.783 234.031 230.533 239.125 236.077L359.883 125.111ZM292.256 89.0418C291.351 89.0418 290.558 89.0139 289.87 88.9698L279.379 252.634C283.683 252.91 287.977 253.042 292.256 253.042V89.0418ZM202.624 170.802V183.57H366.624V170.802H202.624ZM284.624 101.57H282.416V265.57H284.624V101.57ZM291.056 251.218C329.093 251.218 351.287 227.091 357.094 220.381L233.082 113.063C235.835 109.883 241.292 104.163 249.839 98.8721C258.711 93.3801 272.854 87.2178 291.056 87.2178V251.218ZM357.094 220.381C371.478 203.759 379.248 182.756 379.248 160.914H215.248C215.248 143.487 221.578 126.357 233.082 113.063L357.094 220.381ZM379.248 160.914C379.248 137.96 370.126 110.133 344.855 90.7758L245.13 220.972C235.387 213.509 227.202 203.478 221.84 191.499C216.654 179.913 215.248 169.092 215.248 160.914H379.248ZM344.855 90.7758C325.601 76.0281 304.69 72.1458 289.136 72.1458V236.146C278.383 236.146 261.376 233.416 245.13 220.972L344.855 90.7758ZM289.136 72.1458C285.273 72.1458 281.658 72.3329 278.567 72.5619L290.682 236.114C290.814 236.104 290.757 236.11 290.534 236.12C290.321 236.129 289.839 236.146 289.136 236.146V72.1458ZM202.624 154.338V168.978H366.624V154.338H202.624ZM278.943 250.781C282.84 251.051 286.9 251.218 291.056 251.218V87.2178C291.162 87.2178 291.152 87.2199 291.018 87.2148C290.884 87.2099 290.649 87.1987 290.305 87.1748L278.943 250.781ZM320.249 177.042L244.727 145.096L244.525 145.574L244.329 146.054L320.249 177.042ZM330.665 152.418V70.4178H276.316L255.143 120.472L330.665 152.418ZM332.968 152.418L408.374 184.636L457.175 70.4178H332.968V152.418ZM319.576 183.762V265.762H373.712L394.982 215.98L319.576 183.762ZM318.281 183.762L242.875 215.98L264.145 265.762H318.281V183.762ZM304.888 152.418V70.4178H180.682L229.483 184.636L304.888 152.418ZM307.288 152.418L382.766 120.369L361.556 70.4178H307.288V152.418ZM319.049 180.114L243.571 212.162L328.292 411.69L396.841 206.044L319.049 180.114ZM395.77 208.988L406.186 184.363L255.143 120.472L244.727 145.096L395.77 208.988ZM330.665 234.418H332.968V70.4178H330.665V234.418ZM257.563 120.2L244.171 151.544L394.982 215.98L408.374 184.636L257.563 120.2ZM319.576 101.762H318.281V265.762H319.576V101.762ZM393.686 151.544L380.294 120.2L229.483 184.636L242.875 215.98L393.686 151.544ZM304.888 234.418H307.288V70.4178H304.888V234.418ZM231.811 184.466L243.571 212.162L394.526 148.065L382.766 120.369L231.811 184.466ZM396.841 206.044C396.633 206.668 396.458 207.166 396.343 207.488C396.223 207.823 396.125 208.089 396.059 208.265C395.933 208.603 395.853 208.808 395.848 208.822C395.84 208.841 395.931 208.611 396.168 208.029L244.329 146.054C243.942 147.003 242.434 150.652 241.256 154.183L396.841 206.044ZM339.323 183.57H257.323V265.57H339.323V183.57ZM339.323 152.418V70.4178H257.323V152.418H339.323ZM341.531 152.418H423.531V70.4178H341.531V152.418ZM341.531 183.57V265.57H423.531V183.57H341.531ZM421.322 183.57V152.418H257.323V183.57H421.322ZM339.323 234.418H341.531V70.4178H339.323V234.418ZM259.531 152.418V183.57H423.531V152.418H259.531ZM341.531 101.57H339.323V265.57H341.531V101.57ZM377.297 182.034L417.362 253.579L483.923 216.305L451.545 147.23L377.297 182.034ZM355.985 179.442L299.492 238.877L299.638 239.016L299.785 239.154L355.985 179.442ZM355.361 156.546L295.227 100.797L295.07 100.966L294.914 101.136L355.361 156.546ZM376.961 153.618L455.155 178.311L479.663 100.702L402.241 75.6118L376.961 153.618ZM376.385 155.442L352.27 233.816L430.067 257.753L454.579 180.135L376.385 155.442ZM357.089 157.986L295.96 103.33L295.941 103.351L295.922 103.373L357.089 157.986ZM357.665 177.906L300.018 236.223L300.185 236.387L300.352 236.551L357.665 177.906ZM376.577 180.498L450.825 145.694L417.38 74.3454L344.756 104.924L376.577 180.498ZM337.231 110.488C345.032 106.12 352.05 104.114 356.833 103.153C361.631 102.189 365.3 102.05 367.265 102.05V266.05C378.452 266.05 397.724 264.577 417.362 253.579L337.231 110.488ZM367.265 102.05C375.253 102.05 383.831 103.543 392.263 106.988C400.621 110.402 407.244 115.08 412.185 119.729L299.785 239.154C317.369 255.704 340.928 266.05 367.265 266.05V102.05ZM412.478 120.007C418.36 125.598 423.921 133.029 427.833 142.249C431.731 151.434 433.137 160.373 433.137 168.018H269.137C269.137 194.547 279.626 219.994 299.492 238.877L412.478 120.007ZM433.137 168.018C433.137 174.218 432.164 181.845 429.143 190.051C426.075 198.382 421.443 205.808 415.808 211.955L294.914 101.136C276.828 120.867 269.137 145.108 269.137 168.018H433.137ZM415.495 212.295C409.409 218.859 401.485 224.715 391.947 228.714C382.536 232.659 373.613 233.938 366.353 233.938V69.9378C340.825 69.9378 314.761 79.7268 295.227 100.797L415.495 212.295ZM366.353 233.938C361.344 233.938 356.352 233.137 351.681 231.624L402.241 75.6118C390.658 71.8582 378.593 69.9378 366.353 69.9378V233.938ZM298.767 128.925L298.191 130.749L454.579 180.135L455.155 178.311L298.767 128.925ZM400.5 77.0679C389.202 73.5916 377.625 71.9058 366.065 71.9058V235.906C361.609 235.906 356.912 235.244 352.27 233.816L400.5 77.0679ZM366.065 71.9058C338.459 71.9058 313.466 83.7511 295.96 103.33L418.217 212.642C412.692 218.822 405.035 225.055 395.089 229.576C385.089 234.121 375.036 235.906 366.065 235.906V71.9058ZM295.922 103.373C278.823 122.524 271.489 145.852 271.489 167.922H435.489C435.489 174.369 434.487 182.132 431.485 190.419C428.441 198.818 423.854 206.329 418.256 212.599L295.922 103.373ZM271.489 167.922C271.489 193.805 281.699 218.114 300.018 236.223L415.312 119.589C420.962 125.174 426.354 132.551 430.182 141.704C434.012 150.862 435.489 159.911 435.489 167.922H271.489ZM300.352 236.551C317.306 253.12 340.709 264.034 367.409 264.034V100.034C376.074 100.034 385.268 101.714 394.2 105.498C403.028 109.238 409.917 114.315 414.977 119.26L300.352 236.551ZM367.409 264.034C378.003 264.034 392.756 262.658 408.398 256.072L344.756 104.924C355.534 100.386 364.175 100.034 367.409 100.034V264.034ZM302.329 215.301L303.049 216.837L451.545 147.23L450.825 145.694L302.329 215.301ZM385.166 183.57H303.166V265.57H385.166V183.57ZM385.166 152.418V70.4178H303.166V152.418H385.166ZM399.71 152.418H481.71V70.4178H399.71V152.418ZM399.71 154.338V236.338H481.71V154.338H399.71ZM387.374 154.338V72.3378H305.374V154.338H387.374ZM387.374 165.666H305.374V247.666H387.374V165.666ZM398.51 165.666H480.51V83.6658H398.51V165.666ZM398.51 167.538V249.538H480.51V167.538H398.51ZM387.374 167.538V85.5378H305.374V167.538H387.374ZM387.374 181.554H305.374V263.554H387.374V181.554ZM400.19 181.554H482.19V99.5538H400.19V181.554ZM400.19 183.57V265.57H482.19V183.57H400.19ZM467.166 183.57V152.418H303.166V183.57H467.166ZM385.166 234.418H399.71V70.4178H385.166V234.418ZM317.71 152.418V154.338H481.71V152.418H317.71ZM399.71 72.3378H387.374V236.338H399.71V72.3378ZM305.374 154.338V165.666H469.374V154.338H305.374ZM387.374 247.666H398.51V83.6658H387.374V247.666ZM316.51 165.666V167.538H480.51V165.666H316.51ZM398.51 85.5378H387.374V249.538H398.51V85.5378ZM305.374 167.538V181.554H469.374V167.538H305.374ZM387.374 263.554H400.19V99.5538H387.374V263.554ZM318.19 181.554V183.57H482.19V181.554H318.19ZM400.19 101.57H385.166V265.57H400.19V101.57Z" fill="black" mask="url(#path-4-inside-1_70_39)"/>
</g>
<defs>
<filter id="filter0_d_70_39" x="227.612" y="47.8418" width="176.578" height="144.304" filterUnits="userSpaceOnUse" color-interpolation-filters="sRGB">
<feFlood flood-opacity="0" result="BackgroundImageFix"/>
<feColorMatrix in="SourceAlpha" type="matrix" values="0 0 0 0 0 0 0 0 0 0 0 0 0 0 0 0 0 0 127 0" result="hardAlpha"/>
<feOffset dy="4"/>
<feGaussianBlur stdDeviation="2"/>
<feComposite in2="hardAlpha" operator="out"/>
<feColorMatrix type="matrix" values="0 0 0 0 0 0 0 0 0 0 0 0 0 0 0 0 0 0 0.25 0"/>
<feBlend mode="normal" in2="BackgroundImageFix" result="effect1_dropShadow_70_39"/>
<feBlend mode="normal" in="SourceGraphic" in2="effect1_dropShadow_70_39" result="shape"/>
</filter>
</defs>
</svg>
