<svg width="20" height="20" viewBox="0 0 20 20" fill="none" xmlns="http://www.w3.org/2000/svg">
<g clip-path="url(#clip0_18_4901)">
<path d="M14.9333 16.9999H4C2.86667 16.9999 2 16.0666 2 14.9999V2.46658C2 2.19991 2.2 1.99991 2.46667 1.99991H13.3333C13.6 1.99991 13.8 2.19991 13.8 2.46658V14.8666C13.8 15.4666 14.2667 15.9332 14.8667 15.9332C15.4667 15.9332 15.9333 15.4666 15.9333 14.8666V14.1999C15.9333 13.9332 16.1333 13.7332 16.4 13.7332C16.6667 13.7332 16.8667 13.9332 16.8667 14.1999V14.8666C17 16.0666 16.0667 16.9999 14.9333 16.9999ZM3 2.99991V14.9999C3 15.5332 3.46667 15.9999 4 15.9999H13.1333C12.9333 15.6666 12.8 15.3332 12.8 14.9332V2.99991H3Z" fill="#121619"/>
<path d="M16.4666 13.3332C16.2 13.3332 16 13.1332 16 12.8666V7.79991H13.6C13.3333 7.79991 13.1333 7.59991 13.1333 7.33324C13.1333 7.06658 13.3333 6.86658 13.6 6.86658H16.5333C16.8 6.86658 17 7.06658 17 7.33324V12.8666C17 13.1332 16.8 13.3332 16.4666 13.3332Z" fill="#121619"/>
<path d="M7.93329 10.7999H4.19996C3.93329 10.7999 3.66663 10.5999 3.66663 10.2666V4.1999C3.66663 3.93323 3.86663 3.66656 4.19996 3.66656H7.93329C8.19996 3.66656 8.46663 3.86656 8.46663 4.1999V10.3332C8.39996 10.5999 8.19996 10.7999 7.93329 10.7999ZM4.66663 9.7999H7.39996V4.66656H4.66663V9.7999Z" fill="#121619"/>
<path d="M11.6666 5.46657H9.33326C9.06659 5.46657 8.79993 5.26657 8.79993 4.93324C8.79993 4.5999 8.99993 4.3999 9.33326 4.3999H11.7333C11.9999 4.3999 12.2666 4.5999 12.2666 4.93324C12.2666 5.26657 11.9999 5.46657 11.6666 5.46657Z" fill="#121619"/>
<path d="M11.6666 7.79991H9.33326C9.06659 7.79991 8.79993 7.59991 8.79993 7.26658C8.79993 6.93325 8.99993 6.73325 9.33326 6.73325H11.7333C11.9999 6.73325 12.2666 6.93325 12.2666 7.26658C12.2666 7.59991 11.9999 7.79991 11.6666 7.79991Z" fill="#121619"/>
<path d="M11.6666 10.1332H9.33326C9.06659 10.1332 8.79993 9.93322 8.79993 9.59989C8.79993 9.26656 8.99993 9.06656 9.33326 9.06656H11.7333C11.9999 9.06656 12.2666 9.26656 12.2666 9.59989C12.2666 9.93322 11.9999 10.1332 11.6666 10.1332Z" fill="#121619"/>
<path d="M11.6666 12.4666H4.19996C3.93329 12.4666 3.66663 12.2666 3.66663 11.9332C3.66663 11.5999 3.86663 11.3999 4.19996 11.3999H11.7333C12 11.3999 12.2666 11.5999 12.2666 11.9332C12.2666 12.2666 12 12.4666 11.6666 12.4666Z" fill="#121619"/>
<path d="M11.6666 14.8666H4.19996C3.93329 14.8666 3.66663 14.6666 3.66663 14.3332C3.66663 13.9999 3.86663 13.7999 4.19996 13.7999H11.7333C12 13.7999 12.2666 13.9999 12.2666 14.3332C12.2666 14.6666 12 14.8666 11.6666 14.8666Z" fill="#121619"/>
</g>
<defs>
<clipPath id="clip0_18_4901">
<rect width="15" height="15" fill="white" transform="translate(2 1.99991)"/>
</clipPath>
</defs>
</svg>
