<svg width="20" height="20" viewBox="0 0 20 20" fill="none" xmlns="http://www.w3.org/2000/svg">
<path d="M6.125 2L7.15625 3.03125L4.40625 5.78125L3.89062 6.21094L3.375 5.78125L2 4.40625L3.03125 3.375L3.89062 4.27734L6.125 2ZM9.39062 3.20312H18.3281V4.57812H9.39062V3.20312ZM6.125 7.5L7.15625 8.53125L4.40625 11.2812L3.89062 11.7109L3.375 11.2812L2 9.90625L3.03125 8.875L3.89062 9.77734L6.125 7.5ZM9.39062 8.70312H18.3281V10.0781H9.39062V8.70312ZM6.125 13L7.15625 14.0312L4.40625 16.7812L3.89062 17.2109L3.375 16.7812L2 15.4062L3.03125 14.375L3.89062 15.2773L6.125 13ZM9.39062 14.2031H18.3281V15.5781H9.39062V14.2031Z" fill="white"/>
</svg>
