<svg width="20" height="20" viewBox="0 0 20 20" fill="none" xmlns="http://www.w3.org/2000/svg">
<g clip-path="url(#clip0_18_5018)">
<path d="M16.5999 16.9999H4.33328C4.06661 16.9999 3.79994 16.7999 3.79994 16.4666V15.8666C3.79994 15.5999 3.99994 15.3333 4.33328 15.3333C4.66661 15.3333 4.86661 15.5333 4.86661 15.8666V15.9999H16.1333V6.79992H12.7999C12.5333 6.79992 12.2666 6.59992 12.2666 6.26659V2.93325H4.79994V12.2666C4.79994 12.5333 4.59994 12.7999 4.26661 12.7999C3.93328 12.7999 3.73328 12.5999 3.73328 12.2666V2.53325C3.79994 2.19992 4.06661 1.99992 4.33328 1.99992H12.7333C12.9999 1.99992 13.2666 2.19992 13.2666 2.53325V5.86659H16.5999C16.8666 5.86659 17.1333 6.06659 17.1333 6.39992V16.5999C17.1333 16.7999 16.8666 16.9999 16.5999 16.9999Z" fill="white"/>
<path d="M14.4666 9.19993H6.46656C6.19989 9.19993 5.93323 8.99993 5.93323 8.66659C5.93323 8.33326 6.13323 8.13326 6.46656 8.13326H14.4666C14.7332 8.13326 14.9999 8.33326 14.9999 8.66659C14.9999 8.99993 14.7332 9.19993 14.4666 9.19993Z" fill="white"/>
<path d="M14.4665 11.9332H10.5332C10.2665 11.9332 9.99988 11.7332 9.99988 11.3999C9.99988 11.0666 10.1999 10.8666 10.5332 10.8666H14.4665C14.7332 10.8666 14.9999 11.0666 14.9999 11.3999C14.9999 11.7332 14.7332 11.9332 14.4665 11.9332Z" fill="white"/>
<path d="M10.7999 6.53326H6.46656C6.19989 6.53326 5.93323 6.33326 5.93323 5.99993C5.93323 5.66659 6.13323 5.46659 6.46656 5.46659H10.7999C11.0666 5.46659 11.3332 5.66659 11.3332 5.99993C11.3332 6.33326 11.0666 6.53326 10.7999 6.53326Z" fill="white"/>
<path d="M14.4666 14.5999H7.73328C7.46662 14.5999 7.19995 14.3999 7.19995 14.0666C7.19995 13.7332 7.39995 13.5332 7.73328 13.5332H14.4666C14.7333 13.5332 15 13.7332 15 14.0666C15 14.3999 14.7333 14.5999 14.4666 14.5999Z" fill="white"/>
<path d="M16.6 6.79992C16.4667 6.79992 16.3333 6.73326 16.2667 6.66659L12.4 2.86659C12.2 2.66659 12.2 2.33326 12.4 2.13326C12.6 1.93326 12.9333 1.93326 13.1333 2.13326L16.9333 5.99992C17.1333 6.19992 17.1333 6.53326 16.9333 6.73326C16.8667 6.79992 16.7333 6.79992 16.6 6.79992Z" fill="white"/>
<path d="M4.33333 15.1332H4.26667C4.13333 15.1332 4 14.9999 3.93333 14.9332L3.13333 13.6666C3 13.3999 3.06667 13.1332 3.26667 12.9999C3.46667 12.8666 3.8 12.9332 3.93333 13.1332L4.46667 13.9332L8.53333 10.7332C8.73333 10.5332 9.06667 10.5999 9.26667 10.7999C9.46667 10.9999 9.4 11.3332 9.2 11.5332L4.66667 15.0666C4.53333 15.1332 4.4 15.1332 4.33333 15.1332Z" fill="white"/>
</g>
<defs>
<clipPath id="clip0_18_5018">
<rect width="14.1333" height="15" fill="white" transform="translate(3 1.99992)"/>
</clipPath>
</defs>
</svg>
