<svg width="20" height="20" viewBox="0 0 20 20" fill="none" xmlns="http://www.w3.org/2000/svg">
<path d="M4.40625 4.44922C6.03906 2.81641 7.98698 2 10.25 2C12.513 2 14.4466 2.81641 16.0508 4.44922C17.6836 6.05339 18.5 7.98698 18.5 10.25C18.5 12.513 17.6836 14.4609 16.0508 16.0938C14.4466 17.6979 12.513 18.5 10.25 18.5C7.98698 18.5 6.03906 17.6979 4.40625 16.0938C2.80208 14.4609 2 12.513 2 10.25C2 7.98698 2.80208 6.05339 4.40625 4.44922ZM15.1055 5.39453C13.7591 4.04818 12.1406 3.375 10.25 3.375C8.35938 3.375 6.74089 4.04818 5.39453 5.39453C4.04818 6.74089 3.375 8.35938 3.375 10.25C3.375 12.1406 4.04818 13.7591 5.39453 15.1055C6.74089 16.4518 8.35938 17.125 10.25 17.125C12.1406 17.125 13.7591 16.4518 15.1055 15.1055C16.4518 13.7591 17.125 12.1406 17.125 10.25C17.125 8.35938 16.4518 6.74089 15.1055 5.39453ZM9.73438 4.27734C9.8776 4.13411 10.0495 4.0625 10.25 4.0625C10.4505 4.0625 10.6081 4.13411 10.7227 4.27734C10.8659 4.39193 10.9375 4.54948 10.9375 4.75C10.9375 4.95052 10.8659 5.1224 10.7227 5.26562C10.6081 5.38021 10.4505 5.4375 10.25 5.4375C10.0495 5.4375 9.8776 5.38021 9.73438 5.26562C9.61979 5.1224 9.5625 4.95052 9.5625 4.75C9.5625 4.54948 9.61979 4.39193 9.73438 4.27734ZM5.86719 5.91016C6.01042 5.76693 6.16797 5.69531 6.33984 5.69531C6.54036 5.69531 6.71224 5.76693 6.85547 5.91016C6.9987 6.02474 7.07031 6.18229 7.07031 6.38281C7.07031 6.55469 6.9987 6.71224 6.85547 6.85547C6.71224 6.9987 6.54036 7.07031 6.33984 7.07031C6.16797 7.07031 6.01042 6.9987 5.86719 6.85547C5.7526 6.71224 5.69531 6.55469 5.69531 6.38281C5.69531 6.18229 5.7526 6.02474 5.86719 5.91016ZM13.6445 5.86719L14.6328 6.85547L11.582 9.90625C11.6107 10.0208 11.625 10.1354 11.625 10.25C11.625 10.6224 11.4818 10.9518 11.1953 11.2383C10.9375 11.4961 10.6224 11.625 10.25 11.625C9.8776 11.625 9.54818 11.4961 9.26172 11.2383C9.00391 10.9518 8.875 10.6224 8.875 10.25C8.875 9.8776 9.00391 9.5625 9.26172 9.30469C9.54818 9.01823 9.8776 8.875 10.25 8.875C10.3646 8.875 10.4792 8.88932 10.5938 8.91797L13.6445 5.86719ZM4.23438 9.77734C4.3776 9.63411 4.54948 9.5625 4.75 9.5625C4.95052 9.5625 5.10807 9.63411 5.22266 9.77734C5.36589 9.89193 5.4375 10.0495 5.4375 10.25C5.4375 10.4505 5.36589 10.6224 5.22266 10.7656C5.10807 10.8802 4.95052 10.9375 4.75 10.9375C4.54948 10.9375 4.3776 10.8802 4.23438 10.7656C4.11979 10.6224 4.0625 10.4505 4.0625 10.25C4.0625 10.0495 4.11979 9.89193 4.23438 9.77734ZM15.2344 9.77734C15.3776 9.63411 15.5495 9.5625 15.75 9.5625C15.9505 9.5625 16.1081 9.63411 16.2227 9.77734C16.3659 9.89193 16.4375 10.0495 16.4375 10.25C16.4375 10.4505 16.3659 10.6224 16.2227 10.7656C16.1081 10.8802 15.9505 10.9375 15.75 10.9375C15.5495 10.9375 15.3776 10.8802 15.2344 10.7656C15.1198 10.6224 15.0625 10.4505 15.0625 10.25C15.0625 10.0495 15.1198 9.89193 15.2344 9.77734ZM5.86719 13.6445C6.01042 13.5013 6.16797 13.4297 6.33984 13.4297C6.54036 13.4297 6.71224 13.5013 6.85547 13.6445C6.9987 13.7878 7.07031 13.9596 7.07031 14.1602C7.07031 14.332 6.9987 14.4896 6.85547 14.6328C6.71224 14.7474 6.54036 14.8047 6.33984 14.8047C6.16797 14.8047 6.01042 14.7474 5.86719 14.6328C5.7526 14.4896 5.69531 14.332 5.69531 14.1602C5.69531 13.9596 5.7526 13.7878 5.86719 13.6445ZM13.6445 13.6445C13.7878 13.5013 13.9453 13.4297 14.1172 13.4297C14.3177 13.4297 14.4753 13.5013 14.5898 13.6445C14.7331 13.7878 14.8047 13.9596 14.8047 14.1602C14.8047 14.332 14.7331 14.4896 14.5898 14.6328C14.4753 14.7474 14.3177 14.8047 14.1172 14.8047C13.9453 14.8047 13.7878 14.7474 13.6445 14.6328C13.5013 14.4896 13.4297 14.332 13.4297 14.1602C13.4297 13.9596 13.5013 13.7878 13.6445 13.6445Z" fill="#121619"/>
</svg>
