<svg width="20" height="20" viewBox="0 0 20 20" fill="none" xmlns="http://www.w3.org/2000/svg">
<path d="M4.76196 5.78947C4.76196 5.64989 4.81213 5.51601 4.90144 5.41731C4.99074 5.31861 5.11186 5.26316 5.23815 5.26316H10.9524C11.0787 5.26316 11.1999 5.31861 11.2892 5.41731C11.3785 5.51601 11.4286 5.64989 11.4286 5.78947C11.4286 5.92906 11.3785 6.06293 11.2892 6.16163C11.1999 6.26034 11.0787 6.31579 10.9524 6.31579H5.23815C5.11186 6.31579 4.99074 6.26034 4.90144 6.16163C4.81213 6.06293 4.76196 5.92906 4.76196 5.78947ZM4.76196 7.89474C4.76196 7.75515 4.81213 7.62128 4.90144 7.52257C4.99074 7.42387 5.11186 7.36842 5.23815 7.36842H10.9524C11.0787 7.36842 11.1999 7.42387 11.2892 7.52257C11.3785 7.62128 11.4286 7.75515 11.4286 7.89474C11.4286 8.03432 11.3785 8.16819 11.2892 8.2669C11.1999 8.3656 11.0787 8.42105 10.9524 8.42105H5.23815C5.11186 8.42105 4.99074 8.3656 4.90144 8.2669C4.81213 8.16819 4.76196 8.03432 4.76196 7.89474ZM4.76196 10C4.76196 9.86041 4.81213 9.72654 4.90144 9.62784C4.99074 9.52913 5.11186 9.47368 5.23815 9.47368H10.9524C11.0787 9.47368 11.1999 9.52913 11.2892 9.62784C11.3785 9.72654 11.4286 9.86041 11.4286 10C11.4286 10.1396 11.3785 10.2735 11.2892 10.3722C11.1999 10.4709 11.0787 10.5263 10.9524 10.5263H5.23815C5.11186 10.5263 4.99074 10.4709 4.90144 10.3722C4.81213 10.2735 4.76196 10.1396 4.76196 10ZM4.76196 12.1053C4.76196 11.9657 4.81213 11.8318 4.90144 11.7331C4.99074 11.6344 5.11186 11.5789 5.23815 11.5789H10.9524C11.0787 11.5789 11.1999 11.6344 11.2892 11.7331C11.3785 11.8318 11.4286 11.9657 11.4286 12.1053C11.4286 12.2449 11.3785 12.3787 11.2892 12.4774C11.1999 12.5761 11.0787 12.6316 10.9524 12.6316H5.23815C5.11186 12.6316 4.99074 12.5761 4.90144 12.4774C4.81213 12.3787 4.76196 12.2449 4.76196 12.1053ZM4.76196 14.2105C4.76196 14.0709 4.81213 13.9371 4.90144 13.8384C4.99074 13.7397 5.11186 13.6842 5.23815 13.6842H10.9524C11.0787 13.6842 11.1999 13.7397 11.2892 13.8384C11.3785 13.9371 11.4286 14.0709 11.4286 14.2105C11.4286 14.3501 11.3785 14.484 11.2892 14.5827C11.1999 14.6814 11.0787 14.7368 10.9524 14.7368H5.23815C5.11186 14.7368 4.99074 14.6814 4.90144 14.5827C4.81213 14.484 4.76196 14.3501 4.76196 14.2105ZM12.8572 5.26316C12.7309 5.26316 12.6098 5.31861 12.5205 5.41731C12.4312 5.51601 12.381 5.64989 12.381 5.78947C12.381 5.92906 12.4312 6.06293 12.5205 6.16163C12.6098 6.26034 12.7309 6.31579 12.8572 6.31579H13.8096C13.9359 6.31579 14.057 6.26034 14.1463 6.16163C14.2356 6.06293 14.2858 5.92906 14.2858 5.78947C14.2858 5.64989 14.2356 5.51601 14.1463 5.41731C14.057 5.31861 13.9359 5.26316 13.8096 5.26316H12.8572ZM12.8572 7.36842C12.7309 7.36842 12.6098 7.42387 12.5205 7.52257C12.4312 7.62128 12.381 7.75515 12.381 7.89474C12.381 8.03432 12.4312 8.16819 12.5205 8.2669C12.6098 8.3656 12.7309 8.42105 12.8572 8.42105H13.8096C13.9359 8.42105 14.057 8.3656 14.1463 8.2669C14.2356 8.16819 14.2858 8.03432 14.2858 7.89474C14.2858 7.75515 14.2356 7.62128 14.1463 7.52257C14.057 7.42387 13.9359 7.36842 13.8096 7.36842H12.8572ZM12.8572 9.47368C12.7309 9.47368 12.6098 9.52913 12.5205 9.62784C12.4312 9.72654 12.381 9.86041 12.381 10C12.381 10.1396 12.4312 10.2735 12.5205 10.3722C12.6098 10.4709 12.7309 10.5263 12.8572 10.5263H13.8096C13.9359 10.5263 14.057 10.4709 14.1463 10.3722C14.2356 10.2735 14.2858 10.1396 14.2858 10C14.2858 9.86041 14.2356 9.72654 14.1463 9.62784C14.057 9.52913 13.9359 9.47368 13.8096 9.47368H12.8572ZM12.8572 11.5789C12.7309 11.5789 12.6098 11.6344 12.5205 11.7331C12.4312 11.8318 12.381 11.9657 12.381 12.1053C12.381 12.2449 12.4312 12.3787 12.5205 12.4774C12.6098 12.5761 12.7309 12.6316 12.8572 12.6316H13.8096C13.9359 12.6316 14.057 12.5761 14.1463 12.4774C14.2356 12.3787 14.2858 12.2449 14.2858 12.1053C14.2858 11.9657 14.2356 11.8318 14.1463 11.7331C14.057 11.6344 13.9359 11.5789 13.8096 11.5789H12.8572ZM12.8572 13.6842C12.7309 13.6842 12.6098 13.7397 12.5205 13.8384C12.4312 13.9371 12.381 14.0709 12.381 14.2105C12.381 14.3501 12.4312 14.484 12.5205 14.5827C12.6098 14.6814 12.7309 14.7368 12.8572 14.7368H13.8096C13.9359 14.7368 14.057 14.6814 14.1463 14.5827C14.2356 14.484 14.2858 14.3501 14.2858 14.2105C14.2858 14.0709 14.2356 13.9371 14.1463 13.8384C14.057 13.7397 13.9359 13.6842 13.8096 13.6842H12.8572Z" fill="white"/>
<path d="M4.14669 2.25989C4.09333 2.20087 4.02805 2.15672 3.95622 2.13107C3.88438 2.10542 3.80807 2.09902 3.73356 2.11239C3.65904 2.12575 3.58848 2.15851 3.52767 2.20794C3.46686 2.25738 3.41756 2.32209 3.38383 2.39673L2.90764 3.44936C2.87445 3.52255 2.85717 3.60329 2.85717 3.68515V17.3694H2.38098C2.25468 17.3694 2.13356 17.4248 2.04426 17.5235C1.95496 17.6222 1.90479 17.7561 1.90479 17.8957C1.90479 18.0353 1.95496 18.1691 2.04426 18.2678C2.13356 18.3665 2.25468 18.422 2.38098 18.422H16.6667C16.793 18.422 16.9141 18.3665 17.0034 18.2678C17.0927 18.1691 17.1429 18.0353 17.1429 17.8957C17.1429 17.7561 17.0927 17.6222 17.0034 17.5235C16.9141 17.4248 16.793 17.3694 16.6667 17.3694H16.1905V3.68515C16.1905 3.60329 16.1732 3.52255 16.14 3.44936L15.6638 2.39673C15.6301 2.32228 15.5808 2.25775 15.5201 2.20844C15.4593 2.15914 15.3889 2.12646 15.3145 2.1131C15.2401 2.09975 15.164 2.10609 15.0922 2.1316C15.0205 2.15712 14.9553 2.20109 14.9019 2.25989L14.2857 2.94094L13.6705 2.25989C13.6263 2.21087 13.5737 2.17199 13.5159 2.14545C13.458 2.11892 13.396 2.10526 13.3334 2.10526C13.2707 2.10526 13.2087 2.11892 13.1508 2.14545C13.093 2.17199 13.0404 2.21087 12.9962 2.25989L12.381 2.94094L11.7657 2.25989C11.7215 2.21087 11.669 2.17199 11.6111 2.14545C11.5532 2.11892 11.4912 2.10526 11.4286 2.10526C11.366 2.10526 11.3039 2.11892 11.2461 2.14545C11.1882 2.17199 11.1357 2.21087 11.0915 2.25989L10.4762 2.94094L9.86098 2.25989C9.81674 2.21087 9.76419 2.17199 9.70634 2.14545C9.64849 2.11892 9.58647 2.10526 9.52383 2.10526C9.4612 2.10526 9.39918 2.11892 9.34132 2.14545C9.28347 2.17199 9.23092 2.21087 9.18669 2.25989L8.57145 2.94094L7.95621 2.25989C7.91198 2.21087 7.85943 2.17199 7.80158 2.14545C7.74373 2.11892 7.68171 2.10526 7.61907 2.10526C7.55644 2.10526 7.49441 2.11892 7.43656 2.14545C7.37871 2.17199 7.32616 2.21087 7.28193 2.25989L6.66669 2.94094L6.05145 2.25989C6.00722 2.21087 5.95467 2.17199 5.89682 2.14545C5.83896 2.11892 5.77694 2.10526 5.71431 2.10526C5.65167 2.10526 5.58965 2.11892 5.5318 2.14545C5.47395 2.17199 5.4214 2.21087 5.37717 2.25989L4.76193 2.94094L4.14669 2.25989ZM3.94002 3.52094L4.42574 4.05778C4.51504 4.15645 4.63614 4.21188 4.7624 4.21188C4.88867 4.21188 5.00977 4.15645 5.09907 4.05778L5.71431 3.37673L6.32955 4.05778C6.37378 4.1068 6.42633 4.14568 6.48418 4.17222C6.54203 4.19875 6.60405 4.21241 6.66669 4.21241C6.72933 4.21241 6.79135 4.19875 6.8492 4.17222C6.90705 4.14568 6.9596 4.1068 7.00383 4.05778L7.61907 3.37673L8.23431 4.05778C8.27854 4.1068 8.33109 4.14568 8.38894 4.17222C8.4468 4.19875 8.50882 4.21241 8.57145 4.21241C8.63409 4.21241 8.69611 4.19875 8.75396 4.17222C8.81181 4.14568 8.86436 4.1068 8.90859 4.05778L9.52383 3.37673L10.1391 4.05778C10.1833 4.1068 10.2359 4.14568 10.2937 4.17222C10.3516 4.19875 10.4136 4.21241 10.4762 4.21241C10.5388 4.21241 10.6009 4.19875 10.6587 4.17222C10.7166 4.14568 10.7691 4.1068 10.8134 4.05778L11.4286 3.37673L12.0438 4.05778C12.0881 4.1068 12.1406 4.14568 12.1985 4.17222C12.2563 4.19875 12.3183 4.21241 12.381 4.21241C12.4436 4.21241 12.5056 4.19875 12.5635 4.17222C12.6213 4.14568 12.6739 4.1068 12.7181 4.05778L13.3334 3.37673L13.9486 4.05778C13.9928 4.1068 14.0454 4.14568 14.1032 4.17222C14.1611 4.19875 14.2231 4.21241 14.2857 4.21241C14.3484 4.21241 14.4104 4.19875 14.4682 4.17222C14.5261 4.14568 14.5786 4.1068 14.6229 4.05778L15.1076 3.52094L15.2381 3.80936V17.3694H3.80955V3.80936L3.94002 3.52094Z" fill="white"/>
</svg>
