<svg width="20" height="20" viewBox="0 0 20 20" fill="none" xmlns="http://www.w3.org/2000/svg">
<path d="M8.07031 2.375C8.44271 1.45833 9.04427 1 9.875 1C10.7057 1 11.3073 1.45833 11.6797 2.375H13.3125H14H16.0625H16.75V3.0625V17.5V18.1875H16.0625H3.6875H3V17.5V3.0625V2.375H3.6875H5.75H6.4375H8.07031ZM10.3477 2.58984C10.2331 2.44661 10.0755 2.375 9.875 2.375C9.67448 2.375 9.5026 2.44661 9.35938 2.58984C9.24479 2.70443 9.1875 2.86198 9.1875 3.0625V3.75H8.5H7.125V5.125H12.625V3.75H11.25H10.5625V3.0625C10.5625 2.86198 10.4909 2.70443 10.3477 2.58984ZM4.375 3.75V16.8125H15.375V3.75H14V5.8125V6.5H13.3125H6.4375H5.75V5.8125V3.75H4.375Z" fill="white"/>
</svg>
