<svg width="20" height="20" viewBox="0 0 20 20" fill="none" xmlns="http://www.w3.org/2000/svg">
<path d="M13.375 2H14.0625H18.1875H18.875V2.6875V17.8125V18.5H18.1875H14.0625H13.375V17.8125V2.6875V2ZM14.75 3.375V17.125H17.5V3.375H14.75ZM1 6.125H1.6875H5.8125H6.5V6.8125V17.8125V18.5H5.8125H1.6875H1V17.8125V6.8125V6.125ZM2.375 7.5V17.125H5.125V7.5H2.375ZM7.1875 10.25H7.875H12H12.6875V10.9375V17.8125V18.5H12H7.875H7.1875V17.8125V10.9375V10.25ZM8.5625 11.625V17.125H11.3125V11.625H8.5625Z" fill="#121619"/>
</svg>
