<svg width="20" height="20" viewBox="0 0 20 20" fill="none" xmlns="http://www.w3.org/2000/svg">
<path fill-rule="evenodd" clip-rule="evenodd" d="M4.4 18C3.07452 18 2 16.9235 2 15.5956V9.45341C2 8.77181 2.28877 8.12224 2.79448 7.66628L8.39448 2.61717C9.30722 1.79423 10.6928 1.79423 11.6055 2.61717L17.2055 7.66628C17.7112 8.12224 18 8.77181 18 9.45341V15.5956C18 16.9235 16.9255 18 15.6 18H4.4ZM16.4 9.45341V15.5956C16.4 16.0382 16.0418 16.3971 15.6 16.3971H13.2V12.3898C13.2 11.062 12.1255 9.9855 10.8 9.9855H9.2C7.87452 9.9855 6.8 11.062 6.8 12.3898V16.3971H4.4C3.95817 16.3971 3.6 16.0382 3.6 15.5956V9.45341C3.6 9.22621 3.69626 9.00969 3.86483 8.8577L9.46483 3.80859C9.76907 3.53428 10.2309 3.53428 10.5352 3.80859L16.1352 8.8577C16.3037 9.00969 16.4 9.22621 16.4 9.45341ZM8.4 16.3971V12.3898C8.4 11.9472 8.75817 11.5884 9.2 11.5884H10.8C11.2418 11.5884 11.6 11.9472 11.6 12.3898V16.3971H8.4Z" fill="white"/>
</svg>
