<svg width="20" height="20" viewBox="0 0 20 20" fill="none" xmlns="http://www.w3.org/2000/svg">
<g clip-path="url(#clip0_82_65)">
<path d="M10.0002 18.8402C5.11216 18.8402 1.16016 14.8882 1.16016 10.0002C1.16016 5.11216 5.11216 1.16016 10.0002 1.16016C14.8882 1.16016 18.8402 5.11216 18.8402 10.0002C18.8402 14.8882 14.8882 18.8402 10.0002 18.8402ZM10.0002 2.20016C5.68416 2.20016 2.20016 5.68416 2.20016 10.0002C2.20016 14.3162 5.68416 17.8002 10.0002 17.8002C14.3162 17.8002 17.8002 14.3162 17.8002 10.0002C17.8002 5.68416 14.3162 2.20016 10.0002 2.20016Z" fill="white"/>
<path d="M7.29589 7.19207C7.45189 6.77607 7.60789 6.46407 7.91989 6.20407C8.17989 5.94407 8.49189 5.73607 8.90789 5.58007C9.32389 5.42407 9.73989 5.37207 10.2079 5.37207C10.5719 5.37207 10.9359 5.42407 11.2479 5.52807C11.5599 5.63207 11.8719 5.78807 12.1319 5.99607C12.3919 6.20407 12.5999 6.46407 12.7039 6.77607C12.8599 7.08807 12.9119 7.45207 12.9119 7.81607C12.9119 8.33607 12.8079 8.75207 12.5999 9.11607C12.3919 9.48007 12.0799 9.79207 11.7679 10.1561L11.0919 10.8321C10.9359 10.9881 10.7799 11.1441 10.7279 11.3001C10.6239 11.4561 10.5719 11.6641 10.5719 11.8721C10.5199 12.0801 10.5199 12.2361 10.5199 12.6521H9.68789C9.68789 12.2361 9.68789 12.0801 9.73989 11.7681C9.79189 11.5081 9.89589 11.2481 9.99989 10.9881C10.1039 10.7801 10.2599 10.5721 10.4679 10.3641C10.6759 10.1561 10.9359 9.94807 11.1959 9.63607C11.4559 9.37607 11.6639 9.11607 11.8199 8.85607C11.9759 8.59607 12.0799 8.23207 12.0799 7.92007C12.0799 7.66007 12.0279 7.40007 11.9239 7.19207C11.8199 6.98407 11.6639 6.77607 11.5079 6.62007C11.3519 6.46407 11.1439 6.36007 10.8839 6.25607C10.6239 6.15207 10.4159 6.10007 10.1559 6.10007C9.79189 6.10007 9.47989 6.15207 9.21989 6.30807C8.95989 6.41207 8.69989 6.62007 8.54389 6.82807C8.38789 7.03607 8.23189 7.29607 8.12789 7.60807C8.02389 7.92007 7.91989 8.07607 7.91989 8.44007H7.08789C7.08789 7.97207 7.13989 7.60807 7.29589 7.19207ZM10.5199 13.6401V14.6801H9.47989V13.6401H10.5199Z" fill="white"/>
</g>
<defs>
<clipPath id="clip0_82_65">
<rect width="20" height="20" fill="white"/>
</clipPath>
</defs>
</svg>
