<svg width="20" height="20" viewBox="0 0 20 20" fill="none" xmlns="http://www.w3.org/2000/svg">
<path d="M2.5 5.16667C3.27778 4.38889 4.22222 4 5.33333 4C6.44444 4 7.38889 4.38889 8.16667 5.16667C8.94444 5.94444 9.33333 6.88889 9.33333 8C9.33333 9.36111 8.77778 10.4444 7.66667 11.25C8.69444 11.75 9.47222 12.4722 10 13.4167C10.5278 12.4722 11.3056 11.75 12.3333 11.25C11.2222 10.4444 10.6667 9.36111 10.6667 8C10.6667 6.88889 11.0556 5.94444 11.8333 5.16667C12.6111 4.38889 13.5556 4 14.6667 4C15.7778 4 16.7222 4.38889 17.5 5.16667C18.2778 5.94444 18.6667 6.88889 18.6667 8C18.6667 9.36111 18.1111 10.4444 17 11.25C17.9167 11.6944 18.6389 12.3472 19.1667 13.2083C19.7222 14.0417 20 14.9722 20 16H18.6667C18.6667 14.8889 18.2778 13.9444 17.5 13.1667C16.7222 12.3889 15.7778 12 14.6667 12C13.5556 12 12.6111 12.3889 11.8333 13.1667C11.0556 13.9444 10.6667 14.8889 10.6667 16H9.33333C9.33333 14.8889 8.94444 13.9444 8.16667 13.1667C7.38889 12.3889 6.44444 12 5.33333 12C4.22222 12 3.27778 12.3889 2.5 13.1667C1.72222 13.9444 1.33333 14.8889 1.33333 16H0C0 14.9722 0.263889 14.0417 0.791667 13.2083C1.34722 12.3472 2.08333 11.6944 3 11.25C1.88889 10.4444 1.33333 9.36111 1.33333 8C1.33333 6.88889 1.72222 5.94444 2.5 5.16667ZM7.20833 6.125C6.70833 5.59722 6.08333 5.33333 5.33333 5.33333C4.58333 5.33333 3.94444 5.59722 3.41667 6.125C2.91667 6.625 2.66667 7.25 2.66667 8C2.66667 8.75 2.91667 9.38889 3.41667 9.91667C3.94444 10.4167 4.58333 10.6667 5.33333 10.6667C6.08333 10.6667 6.70833 10.4167 7.20833 9.91667C7.73611 9.38889 8 8.75 8 8C8 7.25 7.73611 6.625 7.20833 6.125ZM16.5417 6.125C16.0417 5.59722 15.4167 5.33333 14.6667 5.33333C13.9167 5.33333 13.2778 5.59722 12.75 6.125C12.25 6.625 12 7.25 12 8C12 8.75 12.25 9.38889 12.75 9.91667C13.2778 10.4167 13.9167 10.6667 14.6667 10.6667C15.4167 10.6667 16.0417 10.4167 16.5417 9.91667C17.0694 9.38889 17.3333 8.75 17.3333 8C17.3333 7.25 17.0694 6.625 16.5417 6.125Z" fill="white"/>
</svg>
