<svg width="20" height="20" viewBox="0 0 20 20" fill="none" xmlns="http://www.w3.org/2000/svg">
<path fill-rule="evenodd" clip-rule="evenodd" d="M17.817 2.11301C17.8743 2.15994 17.9204 2.21901 17.952 2.28593C17.9837 2.35286 18 2.42598 18 2.50001V16.5C17.9999 16.6156 17.9598 16.7275 17.8866 16.8168C17.8133 16.9062 17.7113 16.9674 17.598 16.99L12.598 17.99C12.5333 18.0029 12.4667 18.0029 12.402 17.99L7.5 17.01L2.598 17.99C2.52549 18.0045 2.45067 18.0027 2.37892 17.9848C2.30718 17.9669 2.2403 17.9333 2.1831 17.8865C2.1259 17.8396 2.07981 17.7806 2.04815 17.7138C2.01649 17.647 2.00004 17.574 2 17.5V3.50001C2.00007 3.38446 2.04016 3.2725 2.11344 3.18317C2.18673 3.09384 2.28869 3.03265 2.402 3.01001L7.402 2.01001C7.46669 1.99708 7.53331 1.99708 7.598 2.01001L12.5 2.99001L17.402 2.01001C17.4745 1.99542 17.5493 1.9971 17.6211 2.01491C17.6928 2.03272 17.7597 2.06622 17.817 2.11301V2.11301ZM12 3.91001L8 3.11001V16.09L12 16.89V3.91001ZM13 16.89L17 16.09V3.11001L13 3.91001V16.89ZM7 16.09V3.11001L3 3.91001V16.89L7 16.09Z" fill="white" stroke="white" stroke-width="0.2"/>
</svg>
